<?xml version="1.0" encoding="UTF-8" standalone="no"?>
<svg
   viewBox="0 0 793.70077 1122.5197"
   width="210mm"
   height="297mm"
   version="1.1"
   id="svg168"
   sodipodi:docname="BASE2.svg"
   inkscape:version="1.2 (dc2aedaf03, 2022-05-15)"
   xmlns:inkscape="http://www.inkscape.org/namespaces/inkscape"
   xmlns:sodipodi="http://sodipodi.sourceforge.net/DTD/sodipodi-0.dtd"
   xmlns="http://www.w3.org/2000/svg"
   xmlns:svg="http://www.w3.org/2000/svg">
  <sodipodi:namedview
     id="namedview170"
     pagecolor="#ffffff"
     bordercolor="#000000"
     borderopacity="0.25"
     inkscape:showpageshadow="2"
     inkscape:pageopacity="0.0"
     inkscape:pagecheckerboard="0"
     inkscape:deskcolor="#d1d1d1"
     showgrid="false"
     inkscape:zoom="1.4770343"
     inkscape:cx="120.85027"
     inkscape:cy="227.14435"
     inkscape:window-width="1409"
     inkscape:window-height="1032"
     inkscape:window-x="296"
     inkscape:window-y="195"
     inkscape:window-maximized="0"
     inkscape:current-layer="g166"
     inkscape:document-units="mm" />
  <desc
     id="desc2">BASE2.dxf - scale = 1.000000, origin = (0.000000, 0.000000), method = manual</desc>
  <defs
     id="defs16">
    <marker
       id="DistanceX"
       orient="auto"
       refX="0"
       refY="0"
       style="overflow:visible">
      <path
         d="M 3,-3 -3,3 M 0,-5 V 5"
         style="stroke:#000000;stroke-width:0.5"
         id="path4" />
    </marker>
    <pattern
       id="Hatch"
       patternUnits="userSpaceOnUse"
       width="8"
       height="8"
       x="0"
       y="0">
      <path
         d="M8 4 l-4,4"
         stroke="#000000"
         stroke-width="0.25"
         linecap="square"
         id="path7" />
      <path
         d="M6 2 l-4,4"
         stroke="#000000"
         stroke-width="0.25"
         linecap="square"
         id="path9" />
      <path
         d="M4 0 l-4,4"
         stroke="#000000"
         stroke-width="0.25"
         linecap="square"
         id="path11" />
    </pattern>
    <symbol
       id="*MODEL_SPACE" />
    <symbol
       id="*PAPER_SPACE" />
  </defs>
  <g
     inkscape:groupmode="layer"
     inkscape:label="0"
     id="g166">
    <path
       id="path84"
       style="fill:none;stroke:#000000"
       d="m 146.17031,415.69822 v -15.12 m 0,-226.77 v 75.59 m -72.756004,-75.59 h 72.756004 m 0,136.06 v 30.24" />
    <path
       id="path100"
       style="fill:none;stroke:#000000"
       d="m 297.35131,415.69822 v -15.12 m 75.591,-226.77 h -75.591 m 0,136.06 v 30.24 m 0,-166.3 v 75.59" />
    <g
       id="g3056">
      <path
         d="m 297.35172,256.95775 h -11.33858 v 45.35433 h 11.33858 z"
         style="fill:none;stroke:#ff0000;stroke-opacity:1"
         id="path24" />
      <path
         d="m 146.17062,347.66641 h 11.33858 v 45.35433 h -11.33858 z"
         style="fill:none;stroke:#ff0000;stroke-opacity:1"
         id="path26" />
      <path
         d="m 286.01314,347.66641 v 45.35433 h 11.33858 v -45.35433 z"
         style="fill:none;stroke:#ff0000;stroke-opacity:1"
         id="path28" />
      <path
         d="m 98.926526,154.9105 h -11.33859 v -45.35433 h 11.33859 z"
         style="fill:none;stroke:#ff0000;stroke-opacity:1"
         id="path30" />
      <path
         d="M 157.5092,302.31208 H 146.17062 V 256.95775 H 157.5092 Z"
         style="fill:none;stroke:#ff0000;stroke-opacity:1"
         id="path36" />
      <path
         d="m 98.926526,359.00499 h -11.33859 v -45.35433 h 11.33859 z"
         style="fill:none;stroke:#ff0000;stroke-opacity:1"
         id="path38" />
      <path
         d="m 98.926526,222.942 v 45.35433 H 87.587936 V 222.942 Z"
         style="fill:none;stroke:#ff0000;stroke-opacity:1"
         id="path40" />
      <path
         d="M 355.9344,268.29633 V 222.942 h -11.33858 v 45.35433 z"
         style="fill:none;stroke:#ff0000;stroke-opacity:1"
         id="path44" />
      <path
         d="m 97.981636,188.92625 a 4.72441,4.72441 0 0 0 -9.44882,0 4.72441,4.72441 0 0 0 9.44882,0 z"
         style="fill:none;stroke:#ff0000;stroke-opacity:1"
         id="path48" />
      <path
         d="m 97.981636,393.02074 a 4.72441,4.72441 0 0 0 -9.44882,0 4.72441,4.72441 0 0 0 9.44882,0 z"
         style="fill:none;stroke:#ff0000;stroke-opacity:1"
         id="path54" />
      <path
         d="m 97.981636,294.75302 a 4.72441,4.72441 0 0 0 -9.44882,0 4.72441,4.72441 0 0 0 9.44882,0 z"
         style="fill:none;stroke:#ff0000;stroke-opacity:1"
         id="path56" />
      <path
         d="m 156.7533,140.87356 a 4.913386,4.913386 0 0 0 -9.82677,0 4.913386,4.913386 0 0 0 9.82677,0 z"
         style="fill:none;stroke:#ff0000;stroke-opacity:1"
         id="path58" />
      <path
         d="m 344.59582,313.65066 v 45.35433 h 11.33858 v -45.35433 z"
         style="fill:none;stroke:#ff0000;stroke-opacity:1"
         id="path60" />
      <path
         d="M 355.9344,154.9105 V 109.55617 H 344.59582 V 154.9105 Z"
         style="fill:none;stroke:#ff0000;stroke-opacity:1"
         id="path68" />
      <path
         d="m 296.59582,140.87356 a 4.91339,4.91339 0 0 0 -9.82678,0 4.91339,4.91339 0 0 0 9.82678,0 z"
         style="fill:none;stroke:#ff0000;stroke-opacity:1"
         id="path80" />
      <path
         d="m 354.98952,188.92625 a 4.72441,4.72441 0 0 0 -9.44882,0 4.72441,4.72441 0 0 0 9.44882,0 z"
         style="fill:none;stroke:#ff0000;stroke-opacity:1"
         id="path86" />
      <path
         id="path92"
         style="fill:none;stroke:#ff0000;stroke-opacity:1"
         d="m 221.76131,345.77822 h 22.677 m -22.677,0 h -22.677 m 45.354,-11.34 h -22.677 m 22.677,11.34 v -11.34 m -45.354,11.34 v -11.34 m 0,0 h 22.677" />
      <path
         d="m 354.98952,393.02074 a 4.72441,4.72441 0 0 0 -9.44882,0 4.72441,4.72441 0 0 0 9.44882,0 z"
         style="fill:none;stroke:#ff0000;stroke-opacity:1"
         id="path96" />
      <path
         id="path98"
         style="fill:none;stroke:#ff0000;stroke-opacity:1"
         d="m 221.76131,398.68822 h 9.449 m 0,-11.34 h -9.449 m 9.449,11.34 v -11.34 m -9.449,11.34 h -9.449 m 0,-11.34 h 9.449 m -9.449,11.34 v -11.34" />
      <path
         id="path102"
         style="fill:none;stroke:#ff0000;stroke-opacity:1"
         d="m 221.76131,239.95022 h 22.677 m 0,0 v -11.339 m 0,0 h -22.677 m 0,11.339 h -22.677 m 0,0 v -11.339 m 0,0 h 22.677" />
      <path
         d="m 354.98952,294.75302 a 4.72441,4.72441 0 0 0 -9.44882,0 4.72441,4.72441 0 0 0 9.44882,0 z"
         style="fill:none;stroke:#ff0000;stroke-opacity:1"
         id="path104" />
      <path
         id="path106"
         style="fill:none;stroke:#ff0000;stroke-opacity:1"
         d="M 143.33597,49.083728 H 81.918646 c -6.262124,2e-6 -11.338578,5.076456 -11.33858,11.33858 V 170.97349 m 0,5.6693 v 109.60629 m 0,5.6693 v 112.44094 c 2e-6,6.26212 5.076456,11.33858 11.33858,11.33858 h 61.417324 m 5.6693,0 h 145.51181 m 5.66929,0 h 61.41732 c 6.26212,0 11.33858,-5.07646 11.33858,-11.33858 V 291.91838 m 0,-5.6693 V 176.64279 m 0,-5.6693 V 60.422308 c 0,-6.262124 -5.07646,-11.338578 -11.33858,-11.33858 h -61.41732 v 0 m -5.66929,0 h -69.92126 v 0 m -5.66929,0 h -69.92126 v 0" />
      <path
         id="path120"
         style="fill:none;stroke:#ff0000;stroke-opacity:1"
         d="m 221.76131,145.46122 h 22.677 m -22.677,0 h -22.677 m 45.354,-11.338 h -22.677 m -22.677,0 h 22.677 m 22.677,11.338 v -11.338 m -45.354,11.338 v -11.338" />
      <path
         d="m 156.7533,72.842068 a 4.913386,4.913386 0 0 0 -9.82677,0 4.913386,4.913386 0 0 0 9.82677,0 z"
         style="fill:none;stroke:#ff0000;stroke-opacity:1"
         id="path122" />
      <path
         d="m 296.59582,72.842068 a 4.91339,4.91339 0 0 0 -9.82678,0 4.91339,4.91339 0 0 0 9.82678,0 z"
         style="fill:none;stroke:#ff0000;stroke-opacity:1"
         id="path124" />
    </g>
    <path
       style="fill:none;stroke:#000000"
       d="m 70.580306,173.80822 h 2.834"
       id="path162" />
  </g>
</svg>
