0
SECTION
2
HEADER
9
$INSUNITS
70
4
9
$ACADVER
1
AC1014
9
$HANDSEED
5
FFFF
0
ENDSEC
0
SECTION
2
TABLES
0
TABLE
2
VPORT
5
8
100
AcDbSymbolTable
0
ENDTAB
0
TABLE
2
LTYPE
5
5
100
AcDbSymbolTable
0
LTYPE
5
14
100
AcDbSymbolTableRecord
100
AcDbLinetypeTableRecord
2
BYBLOCK
70
0
0
LTYPE
5
15
100
AcDbSymbolTableRecord
100
AcDbLinetypeTableRecord
2
BYLAYER
70
0
0
ENDTAB
0
TABLE
2
LAYER
5
2
100
AcDbSymbolTable
70
2
0
LAYER
5
50
100
AcDbSymbolTableRecord
100
AcDbLayerTableRecord
2
0
70
0
6
CONTINUOUS
0
ENDTAB
0
TABLE
2
STYLE
5
3
100
AcDbSymbolTable
70
1
0
STYLE
5
11
100
AcDbSymbolTableRecord
100
AcDbTextStyleTableRecord
2
STANDARD
70
0
0
ENDTAB
0
TABLE
2
VIEW
5
6
100
AcDbSymbolTable
70
0
0
ENDTAB
0
TABLE
2
UCS
5
7
100
AcDbSymbolTable
70
0
0
ENDTAB
0
TABLE
2
APPID
5
9
100
AcDbSymbolTable
70
2
0
APPID
5
12
100
AcDbSymbolTableRecord
100
AcDbRegAppTableRecord
2
ACAD
70
0
0
ENDTAB
0
TABLE
2
DIMSTYLE
5
A
100
AcDbSymbolTable
70
1
0
ENDTAB
0
TABLE
2
BLOCK_RECORD
5
1
100
AcDbSymbolTable
70
1
0
BLOCK_RECORD
5
1F
100
AcDbSymbolTableRecord
100
AcDbBlockTableRecord
2
*MODEL_SPACE
0
BLOCK_RECORD
5
1B
100
AcDbSymbolTableRecord
100
AcDbBlockTableRecord
2
*PAPER_SPACE
0
ENDTAB
0
ENDSEC
0
SECTION
2
BLOCKS
0
BLOCK
5
20
100
AcDbEntity
100
AcDbBlockBegin
2
*MODEL_SPACE
0
ENDBLK
5
21
100
AcDbEntity
100
AcDbBlockEnd
0
BLOCK
5
1C
100
AcDbEntity
100
AcDbBlockBegin
2
*PAPER_SPACE
0
ENDBLK
5
1D
100
AcDbEntity
100
AcDbBlockEnd
0
ENDSEC
0
SECTION
2
ENTITIES
0
LINE
5
100
100
AcDbEntity
8
0
100
AcDbLine
10
137.5
20
4.4999999999999964
30
0
11
137.5
21
7.4999999999999964
31
0
0
LINE
5
101
100
AcDbEntity
8
0
100
AcDbLine
10
134
20
21.499999999999989
30
0
11
140
21
21.499999999999989
31
0
0
LINE
5
102
100
AcDbEntity
8
0
100
AcDbLine
10
120
20
28.000000000000007
30
0
11
120
21
20
31
0
0
LWPOLYLINE
5
103
100
AcDbEntity
8
0
100
AcDbPolyline
90
4
70
1
43
0.0
10
160
20
42.000000000000014
10
156.99999965727329
20
42.000000000000014
10
156.99999965727329
20
30.000000000000004
10
160
20
30.000000000000004
0
LWPOLYLINE
5
104
100
AcDbEntity
8
0
100
AcDbPolyline
90
4
70
1
43
0.0
10
120
20
18.000000000000004
10
123
20
18.000000000000004
10
123
20
6.0000000000000009
10
120
20
6.0000000000000009
0
LWPOLYLINE
5
105
100
AcDbEntity
8
0
100
AcDbPolyline
90
4
70
1
43
0.0
10
157
20
18.000000000000004
10
157
20
6.0000000000000009
10
160
20
6.0000000000000009
10
160
20
18.000000000000004
0
LWPOLYLINE
5
106
100
AcDbEntity
8
0
100
AcDbPolyline
90
4
70
1
43
0.0
10
107.5
20
69.00000111758709
10
104.5
20
69.00000111758709
10
104.5
20
81.00000111758709
10
107.5
20
81.00000111758709
0
LINE
5
107
100
AcDbEntity
8
0
100
AcDbLine
10
134.00000050663948
20
49.5
30
0
11
140
21
49.5
31
0
0
LINE
5
108
100
AcDbEntity
8
0
100
AcDbLine
10
100.75
20
64
30
0
11
120
21
64
31
0
0
LWPOLYLINE
5
109
100
AcDbEntity
8
0
100
AcDbPolyline
90
4
70
1
43
0.0
10
123.00000034272671
20
30.000000000000004
10
120
20
30.000000000000004
10
120
20
42.000000000000014
10
123.00000034272671
20
42.000000000000014
0
LWPOLYLINE
5
110
100
AcDbEntity
8
0
100
AcDbPolyline
90
4
70
1
43
0.0
10
107.5
20
15
10
104.5
20
15
10
104.5
20
27
10
107.5
20
27
0
LWPOLYLINE
5
111
100
AcDbEntity
8
0
100
AcDbPolyline
90
4
70
1
43
0.0
10
107.5
20
51.000000000000014
10
107.5
20
39
10
104.5
20
39
10
104.5
20
51.000000000000014
0
LINE
5
112
100
AcDbEntity
8
0
100
AcDbLine
10
160
20
64
30
0
11
160
21
44
31
0
0
LWPOLYLINE
5
113
100
AcDbEntity
8
0
100
AcDbPolyline
90
4
70
1
43
0.0
10
175.5
20
39.000000000000007
10
175.5
20
51.000000000000014
10
172.5
20
51.000000000000014
10
172.5
20
39.000000000000007
0
LINE
5
114
100
AcDbEntity
8
0
100
AcDbLine
10
120
20
64
30
0
11
120
21
44
31
0
0
CIRCLE
5
115
100
AcDbEntity
8
0
100
AcDbCircle
10
106
20
60
30
0
40
1.25
210
0
220
0
230
1
0
LINE
5
116
100
AcDbEntity
8
0
100
AcDbLine
10
134.00000050663948
20
46.499999999999993
30
0
11
134.00000050663948
21
49.5
31
0
0
LINE
5
117
100
AcDbEntity
8
0
100
AcDbLine
10
140
20
46.5
30
0
11
134.00000050663948
21
46.499999999999993
31
0
0
CIRCLE
5
118
100
AcDbEntity
8
0
100
AcDbCircle
10
106
20
5.9999999999999964
30
0
40
1.25
210
0
220
0
230
1
0
CIRCLE
5
119
100
AcDbEntity
8
0
100
AcDbCircle
10
106
20
31.999999999999993
30
0
40
1.25
210
0
220
0
230
1
0
CIRCLE
5
120
100
AcDbEntity
8
0
100
AcDbCircle
10
121.5
20
72.71394011865172
30
0
40
1.3
210
0
220
0
230
1
0
LWPOLYLINE
5
121
100
AcDbEntity
8
0
100
AcDbPolyline
90
4
70
1
43
0.0
10
172.5
20
27
10
172.5
20
15
10
175.5
20
15
10
175.5
20
27
0
LINE
5
122
100
AcDbEntity
8
0
100
AcDbLine
10
137.5
20
7.4999999999999964
30
0
11
140
21
7.5
31
0
0
LINE
5
123
100
AcDbEntity
8
0
100
AcDbLine
10
140
20
4.4999999999999929
30
0
11
137.5
21
4.4999999999999964
31
0
0
LINE
5
124
100
AcDbEntity
8
0
100
AcDbLine
10
134
20
18.499999999999993
30
0
11
134
21
21.499999999999989
31
0
0
LWPOLYLINE
5
125
100
AcDbEntity
8
0
100
AcDbPolyline
90
4
70
1
43
0.0
10
175.5
20
69.00000111758709
10
175.5
20
81.00000111758709
10
172.5
20
81.00000111758709
10
172.5
20
69.00000111758709
0
LINE
5
126
100
AcDbEntity
8
0
100
AcDbLine
10
146
20
18.499999999999993
30
0
11
146
21
21.499999999999989
31
0
0
LINE
5
127
100
AcDbEntity
8
0
100
AcDbLine
10
160
20
28.000000000000007
30
0
11
160
21
20
31
0
0
LINE
5
128
100
AcDbEntity
8
0
100
AcDbLine
10
146
20
21.499999999999989
30
0
11
140
21
21.499999999999989
31
0
0
LINE
5
129
100
AcDbEntity
8
0
100
AcDbLine
10
140
20
18.499999999999993
30
0
11
134
21
18.499999999999993
31
0
0
LINE
5
130
100
AcDbEntity
8
0
100
AcDbLine
10
145.99999949336052
20
49.5
30
0
11
140
21
49.5
31
0
0
CIRCLE
5
131
100
AcDbEntity
8
0
100
AcDbCircle
10
158.5
20
72.713940118651706
30
0
40
1.3
210
0
220
0
230
1
0
LINE
5
132
100
AcDbEntity
8
0
100
AcDbLine
10
142.5
20
4.4999999999999964
30
0
11
142.5
21
7.4999999999999956
31
0
0
LINE
5
133
100
AcDbEntity
8
0
100
AcDbLine
10
120
20
5.3926038442842604e-32
30
0
11
120
21
4.0000000000000036
31
0
0
CIRCLE
5
134
100
AcDbEntity
8
0
100
AcDbCircle
10
174
20
60
30
0
40
1.25
210
0
220
0
230
1
0
LINE
5
135
100
AcDbEntity
8
0
100
AcDbLine
10
145.99999949336052
20
46.499999999999993
30
0
11
145.99999949336052
21
49.5
31
0
0
LINE
5
136
100
AcDbEntity
8
0
100
AcDbLine
10
180
20
64
30
0
11
160
21
64
31
0
0
LINE
5
137
100
AcDbEntity
8
0
100
AcDbLine
10
140
20
18.499999999999993
30
0
11
146
21
18.499999999999993
31
0
0
LINE
5
138
100
AcDbEntity
8
0
100
AcDbLine
10
142.5
20
7.4999999999999956
30
0
11
140
21
7.5
31
0
0
CIRCLE
5
139
100
AcDbEntity
8
0
100
AcDbCircle
10
174
20
5.9999999999999964
30
0
40
1.25
210
0
220
0
230
1
0
LINE
5
140
100
AcDbEntity
8
0
100
AcDbLine
10
140
20
4.4999999999999929
30
0
11
142.5
21
4.4999999999999964
31
0
0
LINE
5
141
100
AcDbEntity
8
0
100
AcDbLine
10
160
20
0
30
0
11
160
21
4.0000000000000036
31
0
0
LINE
5
142
100
AcDbEntity
8
0
100
AcDbLine
10
140
20
46.499999999999993
30
0
11
145.99999949336052
21
46.499999999999993
31
0
0
CIRCLE
5
143
100
AcDbEntity
8
0
100
AcDbCircle
10
174
20
31.999999999999993
30
0
40
1.25
210
0
220
0
230
1
0
LWPOLYLINE
5
144
100
AcDbEntity
8
0
100
AcDbPolyline
90
37
70
1
43
0.0
10
160.75
20
0
10
177
20
0
42
0.41421356237309498
10
180
20
2.9999999999999991
10
180
20
32.75
10
180.75
20
32.75
10
180.75
20
34.25
10
180
20
34.25
10
180
20
63.25
10
180.75
20
63.25
10
180.75
20
64.75
10
180
20
64.75
10
180
20
94.000000558793531
42
0.41421356237309337
10
177
20
97.000000558793545
10
160.75
20
97.000000558793545
10
159.25
20
97.000000558793545
10
140.75
20
97.000000558793545
10
139.25
20
97.000000558793545
10
120.75000000000001
20
97.000000558793545
10
119.24999999999997
20
97.000000558793545
10
103
20
97.000000558793545
42
0.41421356237308815
10
100
20
94.000000558793531
10
100
20
64.75
10
99.25
20
64.75
10
99.25
20
63.25
10
100
20
63.25
10
100
20
34.25
10
99.25
20
34.25
10
99.25
20
32.749999999999993
10
100
20
32.749999999999993
10
100
20
2.9999999999999893
42
0.41421356237309426
10
103
20
0
10
119.25
20
0
10
119.25
20
-0.75000000000000011
10
120.75
20
-0.75000000000000011
10
120.75
20
5.2914925222039316e-32
10
159.25
20
1.0111132208032892e-33
10
160
20
0
0
LINE
5
145
100
AcDbEntity
8
0
100
AcDbLine
10
180
20
32.75
30
0
11
180
21
34.25
31
0
0
LINE
5
146
100
AcDbEntity
8
0
100
AcDbLine
10
134.00000050663948
20
71.5
30
0
11
134.00000050663948
21
74.5
31
0
0
LINE
5
147
100
AcDbEntity
8
0
100
AcDbLine
10
145.99999949336052
20
71.5
30
0
11
145.99999949336052
21
74.5
31
0
0
LINE
5
148
100
AcDbEntity
8
0
100
AcDbLine
10
134.00000050663948
20
74.5
30
0
11
140
21
74.5
31
0
0
LINE
5
149
100
AcDbEntity
8
0
100
AcDbLine
10
145.99999949336052
20
74.5
30
0
11
140
21
74.5
31
0
0
LINE
5
150
100
AcDbEntity
8
0
100
AcDbLine
10
140
20
71.5
30
0
11
134.00000050663948
21
71.5
31
0
0
LINE
5
151
100
AcDbEntity
8
0
100
AcDbLine
10
140
20
71.5
30
0
11
145.99999949336052
21
71.5
31
0
0
CIRCLE
5
152
100
AcDbEntity
8
0
100
AcDbCircle
10
121.5
20
90.71394011865172
30
0
40
1.3000000000000078
210
0
220
0
230
1
0
CIRCLE
5
153
100
AcDbEntity
8
0
100
AcDbCircle
10
158.5
20
90.71394011865172
30
0
40
1.2999999999999992
210
0
220
0
230
1
0
LINE
5
154
100
AcDbEntity
8
0
100
AcDbLine
10
140.75
20
97.750000558793545
30
0
11
139.25
21
97.750000558793545
31
0
0
LINE
5
155
100
AcDbEntity
8
0
100
AcDbLine
10
139.25
20
97.750000558793545
30
0
11
139.25
21
97.000000558793545
31
0
0
LINE
5
156
100
AcDbEntity
8
0
100
AcDbLine
10
140.75
20
97.000000558793545
30
0
11
140.75
21
97.750000558793545
31
0
0
LINE
5
157
100
AcDbEntity
8
0
100
AcDbLine
10
160.75
20
-0.75000000000000011
30
0
11
159.25
21
-0.75000000000000011
31
0
0
LINE
5
158
100
AcDbEntity
8
0
100
AcDbLine
10
160.75
20
0
30
0
11
160.75
21
-0.75000000000000011
31
0
0
LINE
5
159
100
AcDbEntity
8
0
100
AcDbLine
10
120.75000000000001
20
97.750000558793531
30
0
11
119.24999999999999
21
97.750000558793531
31
0
0
LINE
5
160
100
AcDbEntity
8
0
100
AcDbLine
10
119.24999999999999
20
97.750000558793531
30
0
11
119.24999999999997
21
97.000000558793545
31
0
0
LINE
5
161
100
AcDbEntity
8
0
100
AcDbLine
10
120.75000000000001
20
97.000000558793545
30
0
11
120.75000000000001
21
97.750000558793531
31
0
0
LINE
5
162
100
AcDbEntity
8
0
100
AcDbLine
10
160.75
20
97.750000558793545
30
0
11
159.25
21
97.750000558793545
31
0
0
LINE
5
163
100
AcDbEntity
8
0
100
AcDbLine
10
159.25
20
97.750000558793545
30
0
11
159.25
21
97.000000558793545
31
0
0
LINE
5
164
100
AcDbEntity
8
0
100
AcDbLine
10
159.25
20
-0.75000000000000011
30
0
11
159.25
21
1.0111132208032892e-33
31
0
0
LINE
5
165
100
AcDbEntity
8
0
100
AcDbLine
10
119.25
20
0
30
0
11
120
21
5.3926038442842604e-32
31
0
0
LINE
5
166
100
AcDbEntity
8
0
100
AcDbLine
10
180
20
64
30
0
11
180
21
64.75
31
0
0
LINE
5
167
100
AcDbEntity
8
0
100
AcDbLine
10
180
20
63.25
30
0
11
180
21
64
31
0
0
LINE
5
168
100
AcDbEntity
8
0
100
AcDbLine
10
120
20
5.3926038442842604e-32
30
0
11
120.75
21
5.2914925222039316e-32
31
0
0
LINE
5
169
100
AcDbEntity
8
0
100
AcDbLine
10
100
20
34.25
30
0
11
100
21
32.749999999999993
31
0
0
LINE
5
170
100
AcDbEntity
8
0
100
AcDbLine
10
100
20
64.75
30
0
11
100
21
64
31
0
0
LINE
5
171
100
AcDbEntity
8
0
100
AcDbLine
10
100
20
64
30
0
11
100
21
63.25
31
0
0
LINE
5
172
100
AcDbEntity
8
0
100
AcDbLine
10
100
20
64
30
0
11
100.75
21
64
31
0
0
LINE
5
173
100
AcDbEntity
8
0
100
AcDbLine
10
160.75
20
97.000000558793545
30
0
11
160.75
21
97.750000558793545
31
0
0
ENDSEC
0
SECTION
2
OBJECTS
0
DICTIONARY
5
C
100
AcDbDictionary
3
ACAD_GROUP
350
D
3
ACAD_MLINESTYLE
350
17
0
DICTIONARY
5
D
100
AcDbDictionary
0
DICTIONARY
5
1A
330
C
100
AcDbDictionary
0
DICTIONARY
5
17
100
AcDbDictionary
0
ENDSEC
0
EOF
