0
SECTION
2
HEADER
9
$INSUNITS
70
4
9
$ACADVER
1
AC1014
9
$HANDSEED
5
FFFF
0
ENDSEC
0
SECTION
2
TABLES
0
TABLE
2
VPORT
5
8
100
AcDbSymbolTable
0
ENDTAB
0
TABLE
2
LTYPE
5
5
100
AcDbSymbolTable
0
LTYPE
5
14
100
AcDbSymbolTableRecord
100
AcDbLinetypeTableRecord
2
BYBLOCK
70
0
0
LTYPE
5
15
100
AcDbSymbolTableRecord
100
AcDbLinetypeTableRecord
2
BYLAYER
70
0
0
ENDTAB
0
TABLE
2
LAYER
5
2
100
AcDbSymbolTable
70
2
0
LAYER
5
50
100
AcDbSymbolTableRecord
100
AcDbLayerTableRecord
2
0
70
0
6
CONTINUOUS
0
ENDTAB
0
TABLE
2
STYLE
5
3
100
AcDbSymbolTable
70
1
0
STYLE
5
11
100
AcDbSymbolTableRecord
100
AcDbTextStyleTableRecord
2
STANDARD
70
0
0
ENDTAB
0
TABLE
2
VIEW
5
6
100
AcDbSymbolTable
70
0
0
ENDTAB
0
TABLE
2
UCS
5
7
100
AcDbSymbolTable
70
0
0
ENDTAB
0
TABLE
2
APPID
5
9
100
AcDbSymbolTable
70
2
0
APPID
5
12
100
AcDbSymbolTableRecord
100
AcDbRegAppTableRecord
2
ACAD
70
0
0
ENDTAB
0
TABLE
2
DIMSTYLE
5
A
100
AcDbSymbolTable
70
1
0
ENDTAB
0
TABLE
2
BLOCK_RECORD
5
1
100
AcDbSymbolTable
70
1
0
BLOCK_RECORD
5
1F
100
AcDbSymbolTableRecord
100
AcDbBlockTableRecord
2
*MODEL_SPACE
0
BLOCK_RECORD
5
1B
100
AcDbSymbolTableRecord
100
AcDbBlockTableRecord
2
*PAPER_SPACE
0
ENDTAB
0
ENDSEC
0
SECTION
2
BLOCKS
0
BLOCK
5
20
100
AcDbEntity
100
AcDbBlockBegin
2
*MODEL_SPACE
0
ENDBLK
5
21
100
AcDbEntity
100
AcDbBlockEnd
0
BLOCK
5
1C
100
AcDbEntity
100
AcDbBlockBegin
2
*PAPER_SPACE
0
ENDBLK
5
1D
100
AcDbEntity
100
AcDbBlockEnd
0
ENDSEC
0
SECTION
2
ENTITIES
0
CIRCLE
5
100
100
AcDbEntity
8
0
100
AcDbCircle
10
6.0000000000000009
20
114
30
0
40
1.2499999999999953
210
0
220
0
230
1
0
CIRCLE
5
101
100
AcDbEntity
8
0
100
AcDbCircle
10
6.0000000000000009
20
60
30
0
40
1.25
210
0
220
0
230
1
0
CIRCLE
5
102
100
AcDbEntity
8
0
100
AcDbCircle
10
6.0000000000000009
20
31.999999999999993
30
0
40
1.25
210
0
220
0
230
1
0
CIRCLE
5
103
100
AcDbEntity
8
0
100
AcDbCircle
10
6.0000000000000009
20
5.9999999999999964
30
0
40
1.25
210
0
220
0
230
1
0
LWPOLYLINE
5
104
100
AcDbEntity
8
0
100
AcDbPolyline
90
4
70
1
43
0.0
10
4.5000000000000009
20
27
10
7.5000000000000009
20
27
10
7.5000000000000009
20
15
10
4.5000000000000009
20
15
0
LWPOLYLINE
5
105
100
AcDbEntity
8
0
100
AcDbPolyline
90
4
70
1
43
0.0
10
4.5000000000000009
20
51.000000000000014
10
7.5000000000000009
20
51.000000000000014
10
7.5000000000000009
20
39
10
4.5000000000000009
20
39
0
LWPOLYLINE
5
106
100
AcDbEntity
8
0
100
AcDbPolyline
90
4
70
1
43
0.0
10
20
20
42.000000000000014
10
23.000000342726707
20
42.000000000000014
10
23.000000342726707
20
30.000000000000004
10
20
20
30.000000000000004
0
LWPOLYLINE
5
107
100
AcDbEntity
8
0
100
AcDbPolyline
90
4
70
1
43
0.0
10
20
20
18.000000000000004
10
23
20
18.000000000000004
10
23
20
6.0000000000000009
10
20
20
6.0000000000000009
0
LWPOLYLINE
5
108
100
AcDbEntity
8
0
100
AcDbPolyline
90
4
70
1
43
0.0
10
4.5000000000000009
20
81.00000111758709
10
7.5000000000000009
20
81.00000111758709
10
7.5000000000000009
20
69.00000111758709
10
4.5000000000000009
20
69.00000111758709
0
LWPOLYLINE
5
109
100
AcDbEntity
8
0
100
AcDbPolyline
90
4
70
1
43
0.0
10
4.5000000000000009
20
105
10
7.5000000000000009
20
105
10
7.5000000000000009
20
93
10
4.5000000000000009
20
93
0
LWPOLYLINE
5
110
100
AcDbEntity
8
0
100
AcDbPolyline
90
4
70
1
43
0.0
10
14
20
115.5
10
26
20
115.5
10
26
20
112.5
10
14
20
112.5
0
LINE
5
111
100
AcDbEntity
8
0
100
AcDbLine
10
-1.6653345369377348e-15
20
117
30
0
11
2.4651903288156619e-31
21
64
31
0
0
LINE
5
112
100
AcDbEntity
8
0
100
AcDbLine
10
80
20
64
30
0
11
80
21
117
31
0
0
CIRCLE
5
113
100
AcDbEntity
8
0
100
AcDbCircle
10
21.5
20
109.51394011865636
30
0
40
1.3
210
0
220
0
230
1
0
CIRCLE
5
114
100
AcDbEntity
8
0
100
AcDbCircle
10
21.5
20
72.71394011865172
30
0
40
1.3
210
0
220
0
230
1
0
LINE
5
115
100
AcDbEntity
8
0
100
AcDbLine
10
77
20
120
30
0
11
2.9999999999999982
21
120
31
0
0
LINE
5
116
100
AcDbEntity
8
0
100
AcDbLine
10
39.25
20
120
30
0
11
22.249999999999996
21
120
31
0
0
LINE
5
117
100
AcDbEntity
8
0
100
AcDbLine
10
2.4651903288156619e-31
20
64
30
0
11
0
21
3.0000000000000071
31
0
0
LINE
5
118
100
AcDbEntity
8
0
100
AcDbLine
10
20.75
20
0
30
0
11
40
21
0
31
0
0
ARC
5
119
100
AcDbEntity
8
0
100
AcDbCircle
10
3.0000000000000226
20
116.99999999999997
30
0
40
3.0000000000000249
210
0
220
0
230
1
100
AcDbArc
50
90.000000000000469
51
180
0
ARC
5
120
100
AcDbEntity
8
0
100
AcDbCircle
10
2.9999999999999982
20
2.9999999999999978
30
0
40
2.9999999999999982
210
0
220
0
230
1
100
AcDbArc
50
180
51
270
0
LINE
5
121
100
AcDbEntity
8
0
100
AcDbLine
10
2.4651903288156619e-31
20
64
30
0
11
20
21
64
31
0
0
LINE
5
122
100
AcDbEntity
8
0
100
AcDbLine
10
20
20
64
30
0
11
20
21
44
31
0
0
LINE
5
123
100
AcDbEntity
8
0
100
AcDbLine
10
20
20
28.000000000000007
30
0
11
20
21
20
31
0
0
LINE
5
124
100
AcDbEntity
8
0
100
AcDbLine
10
20
20
5.3926038442842604e-32
30
0
11
20
21
4.0000000000000036
31
0
0
LINE
5
125
100
AcDbEntity
8
0
100
AcDbLine
10
37.5
20
4.4999999999999964
30
0
11
37.5
21
7.4999999999999964
31
0
0
LINE
5
126
100
AcDbEntity
8
0
100
AcDbLine
10
37.5
20
7.4999999999999964
30
0
11
40
21
7.5
31
0
0
LINE
5
127
100
AcDbEntity
8
0
100
AcDbLine
10
40
20
4.4999999999999929
30
0
11
37.5
21
4.4999999999999964
31
0
0
LINE
5
128
100
AcDbEntity
8
0
100
AcDbLine
10
34
20
21.500000000000007
30
0
11
40
21
21.500000000000007
31
0
0
LINE
5
129
100
AcDbEntity
8
0
100
AcDbLine
10
40
20
18.500000000000011
30
0
11
34
21
18.500000000000011
31
0
0
LINE
5
130
100
AcDbEntity
8
0
100
AcDbLine
10
34
20
18.500000000000011
30
0
11
34
21
21.500000000000007
31
0
0
LINE
5
131
100
AcDbEntity
8
0
100
AcDbLine
10
34.000000506639481
20
49.500000000000021
30
0
11
40
21
49.500000000000021
31
0
0
LINE
5
132
100
AcDbEntity
8
0
100
AcDbLine
10
40
20
46.500000000000014
30
0
11
34.000000506639481
21
46.500000000000014
31
0
0
LINE
5
133
100
AcDbEntity
8
0
100
AcDbLine
10
34.000000506639481
20
46.500000000000014
30
0
11
34.000000506639481
21
49.500000000000021
31
0
0
LINE
5
134
100
AcDbEntity
8
0
100
AcDbLine
10
40
20
18.500000000000011
30
0
11
46
21
18.500000000000011
31
0
0
LINE
5
135
100
AcDbEntity
8
0
100
AcDbLine
10
77
20
-5.5511151231257827e-16
30
0
11
60.75
21
0
31
0
0
LWPOLYLINE
5
136
100
AcDbEntity
8
0
100
AcDbPolyline
90
4
70
1
43
0.0
10
75.5
20
81.00000111758709
10
72.5
20
81.00000111758709
10
72.5
20
69.00000111758709
10
75.5
20
69.00000111758709
0
LWPOLYLINE
5
137
100
AcDbEntity
8
0
100
AcDbPolyline
90
4
70
1
43
0.0
10
72.5
20
93
10
75.5
20
93
10
75.5
20
105
10
72.5
20
105
0
LINE
5
138
100
AcDbEntity
8
0
100
AcDbLine
10
60
20
28.000000000000007
30
0
11
60
21
20
31
0
0
LWPOLYLINE
5
139
100
AcDbEntity
8
0
100
AcDbPolyline
90
4
70
1
43
0.0
10
60
20
30.000000000000004
10
60
20
42.000000000000014
10
56.999999657273293
20
42.000000000000014
10
56.999999657273293
20
30.000000000000004
0
CIRCLE
5
140
100
AcDbEntity
8
0
100
AcDbCircle
10
74
20
31.999999999999993
30
0
40
1.25
210
0
220
0
230
1
0
LWPOLYLINE
5
141
100
AcDbEntity
8
0
100
AcDbPolyline
90
4
70
1
43
0.0
10
75.5
20
51.000000000000014
10
72.5
20
51.000000000000014
10
72.5
20
39.000000000000007
10
75.5
20
39.000000000000007
0
LWPOLYLINE
5
142
100
AcDbEntity
8
0
100
AcDbPolyline
90
4
70
1
43
0.0
10
75.5
20
27
10
72.5
20
27
10
72.5
20
15
10
75.5
20
15
0
LINE
5
143
100
AcDbEntity
8
0
100
AcDbLine
10
40
20
4.4999999999999929
30
0
11
42.5
21
4.4999999999999964
31
0
0
LINE
5
144
100
AcDbEntity
8
0
100
AcDbLine
10
60
20
0
30
0
11
60
21
4.0000000000000036
31
0
0
LINE
5
145
100
AcDbEntity
8
0
100
AcDbLine
10
46
20
18.500000000000011
30
0
11
46
21
21.500000000000007
31
0
0
LINE
5
146
100
AcDbEntity
8
0
100
AcDbLine
10
45.999999493360519
20
49.500000000000021
30
0
11
40
21
49.500000000000021
31
0
0
LINE
5
147
100
AcDbEntity
8
0
100
AcDbLine
10
46
20
21.500000000000007
30
0
11
40
21
21.500000000000007
31
0
0
LWPOLYLINE
5
148
100
AcDbEntity
8
0
100
AcDbPolyline
90
4
70
1
43
0.0
10
57.749999999999993
20
120
10
59.25
20
120
10
59.25
20
119.25
10
57.749999999999993
20
119.25
0
LINE
5
149
100
AcDbEntity
8
0
100
AcDbLine
10
40
20
46.500000000000014
30
0
11
45.999999493360519
21
46.500000000000014
31
0
0
LINE
5
150
100
AcDbEntity
8
0
100
AcDbLine
10
80
20
64
30
0
11
60
21
64
31
0
0
CIRCLE
5
151
100
AcDbEntity
8
0
100
AcDbCircle
10
74
20
60
30
0
40
1.25
210
0
220
0
230
1
0
LINE
5
152
100
AcDbEntity
8
0
100
AcDbLine
10
42.5
20
4.4999999999999964
30
0
11
42.5
21
7.4999999999999956
31
0
0
LWPOLYLINE
5
153
100
AcDbEntity
8
0
100
AcDbPolyline
90
4
70
1
43
0.0
10
54
20
115.5
10
54
20
112.5
10
66
20
112.5
10
66
20
115.5
0
CIRCLE
5
154
100
AcDbEntity
8
0
100
AcDbCircle
10
74
20
114
30
0
40
1.2499999999999953
210
0
220
0
230
1
0
LWPOLYLINE
5
155
100
AcDbEntity
8
0
100
AcDbPolyline
90
4
70
1
43
0.0
10
60
20
6.0000000000000009
10
60
20
18.000000000000004
10
57
20
18.000000000000004
10
57
20
6.0000000000000009
0
LINE
5
156
100
AcDbEntity
8
0
100
AcDbLine
10
45.999999493360519
20
46.500000000000014
30
0
11
45.999999493360519
21
49.500000000000021
31
0
0
LINE
5
157
100
AcDbEntity
8
0
100
AcDbLine
10
42.5
20
7.4999999999999956
30
0
11
40
21
7.5
31
0
0
ARC
5
158
100
AcDbEntity
8
0
100
AcDbCircle
10
77
20
2.9999999999999982
30
0
40
2.9999999999999987
210
0
220
0
230
1
100
AcDbArc
50
-90
51
0
0
CIRCLE
5
159
100
AcDbEntity
8
0
100
AcDbCircle
10
58.5
20
72.713940118651706
30
0
40
1.3
210
0
220
0
230
1
0
CIRCLE
5
160
100
AcDbEntity
8
0
100
AcDbCircle
10
58.5
20
109.51394011865636
30
0
40
1.3
210
0
220
0
230
1
0
CIRCLE
5
161
100
AcDbEntity
8
0
100
AcDbCircle
10
74
20
5.9999999999999964
30
0
40
1.25
210
0
220
0
230
1
0
ARC
5
162
100
AcDbEntity
8
0
100
AcDbCircle
10
76.999999999999972
20
116.99999999999997
30
0
40
3.0000000000000249
210
0
220
-0
230
1
100
AcDbArc
50
0
51
89.99999999999946
0
LINE
5
163
100
AcDbEntity
8
0
100
AcDbLine
10
60
20
64
30
0
11
60
21
44
31
0
0
LINE
5
164
100
AcDbEntity
8
0
100
AcDbLine
10
34.000000506639481
20
74.500000000000014
30
0
11
40
21
74.500000000000014
31
0
0
LINE
5
165
100
AcDbEntity
8
0
100
AcDbLine
10
40
20
71.500000000000028
30
0
11
34.000000506639481
21
71.500000000000014
31
0
0
LINE
5
166
100
AcDbEntity
8
0
100
AcDbLine
10
34.000000506639481
20
71.500000000000014
30
0
11
34.000000506639481
21
74.500000000000014
31
0
0
LINE
5
167
100
AcDbEntity
8
0
100
AcDbLine
10
45.999999493360519
20
74.500000000000014
30
0
11
40
21
74.500000000000014
31
0
0
LINE
5
168
100
AcDbEntity
8
0
100
AcDbLine
10
40
20
71.500000000000014
30
0
11
45.999999493360519
21
71.500000000000014
31
0
0
LINE
5
169
100
AcDbEntity
8
0
100
AcDbLine
10
45.999999493360519
20
71.500000000000014
30
0
11
45.999999493360519
21
74.500000000000014
31
0
0
LINE
5
170
100
AcDbEntity
8
0
100
AcDbLine
10
34.000000506639481
20
99.500000000000028
30
0
11
40
21
99.500000000000028
31
0
0
LINE
5
171
100
AcDbEntity
8
0
100
AcDbLine
10
40
20
96.500000000000028
30
0
11
34.000000506639481
21
96.500000000000028
31
0
0
LINE
5
172
100
AcDbEntity
8
0
100
AcDbLine
10
34.000000506639481
20
96.500000000000028
30
0
11
34.000000506639481
21
99.500000000000028
31
0
0
LINE
5
173
100
AcDbEntity
8
0
100
AcDbLine
10
45.999999493360519
20
99.500000000000028
30
0
11
40
21
99.500000000000028
31
0
0
LINE
5
174
100
AcDbEntity
8
0
100
AcDbLine
10
40
20
96.500000000000028
30
0
11
45.999999493360519
21
96.500000000000028
31
0
0
LINE
5
175
100
AcDbEntity
8
0
100
AcDbLine
10
45.999999493360519
20
96.500000000000028
30
0
11
45.999999493360519
21
99.500000000000028
31
0
0
LINE
5
176
100
AcDbEntity
8
0
100
AcDbLine
10
-1.6653345369377348e-15
20
117
30
0
11
2.4651903288156619e-31
21
64
31
0
0
LWPOLYLINE
5
177
100
AcDbEntity
8
0
100
AcDbPolyline
90
4
70
1
43
0.0
10
80
20
34.250000000000007
10
80
20
32.75
10
80.75
20
32.75
10
80.75
20
34.250000000000007
0
LINE
5
178
100
AcDbEntity
8
0
100
AcDbLine
10
3
20
-5.5511151231257827e-16
30
0
11
19.25
21
0
31
0
0
LINE
5
179
100
AcDbEntity
8
0
100
AcDbLine
10
59.25
20
0
30
0
11
40
21
0
31
0
0
LINE
5
180
100
AcDbEntity
8
0
100
AcDbLine
10
39.25
20
120.75
30
0
11
40.75
21
120.75
31
0
0
LINE
5
181
100
AcDbEntity
8
0
100
AcDbLine
10
57.749999999999993
20
120.75
30
0
11
59.25
21
120.75
31
0
0
LWPOLYLINE
5
182
100
AcDbEntity
8
0
100
AcDbPolyline
90
4
70
1
43
0.0
10
20.75
20
120.75
10
22.249999999999996
20
120.75
10
22.249999999999996
20
120
10
20.749999999999993
20
120
0
LINE
5
183
100
AcDbEntity
8
0
100
AcDbLine
10
-0.75000000000000111
20
89.75
30
0
11
-8.0910121370088054e-16
21
89.75
31
0
0
LINE
5
184
100
AcDbEntity
8
0
100
AcDbLine
10
-8.5623332323685476e-16
20
91.250000000000014
30
0
11
-0.75000000000000111
21
91.250000000000014
31
0
0
LINE
5
185
100
AcDbEntity
8
0
100
AcDbLine
10
-0.75000000000000111
20
91.250000000000014
30
0
11
-0.75000000000000111
21
89.75
31
0
0
LWPOLYLINE
5
186
100
AcDbEntity
8
0
100
AcDbPolyline
90
4
70
1
43
0.0
10
80.750000000000014
20
91.25
10
80.750000000000014
20
89.750000000000014
10
80
20
89.750000000000014
10
80
20
91.25
0
LINE
5
187
100
AcDbEntity
8
0
100
AcDbLine
10
-0.75000000000000022
20
34.250000000000007
30
0
11
-0.75000000000000022
21
32.75
31
0
0
LWPOLYLINE
5
188
100
AcDbEntity
8
0
100
AcDbPolyline
90
5
70
1
43
0.0
10
20.75
20
-0.75000000000000022
10
19.25
20
-0.75000000000000022
10
19.25
20
0
10
20
20
5.3926038442842604e-32
10
20.75
20
0
0
LWPOLYLINE
5
189
100
AcDbEntity
8
0
100
AcDbPolyline
90
5
70
1
43
0.0
10
60.75
20
-0.75000000000000022
10
59.25
20
-0.75000000000000022
10
59.25
20
0
10
60
20
0
10
60.75
20
0
0
LINE
5
190
100
AcDbEntity
8
0
100
AcDbLine
10
20.749999999999993
20
120
30
0
11
2.9999999999999982
21
120
31
0
0
LINE
5
191
100
AcDbEntity
8
0
100
AcDbLine
10
40
20
120
30
0
11
37.5
21
120
31
0
0
LINE
5
192
100
AcDbEntity
8
0
100
AcDbLine
10
40
20
120
30
0
11
40.75
21
120
31
0
0
LINE
5
193
100
AcDbEntity
8
0
100
AcDbLine
10
40.75
20
120.75
30
0
11
40.75
21
120
31
0
0
LINE
5
194
100
AcDbEntity
8
0
100
AcDbLine
10
39.25
20
120
30
0
11
39.25
21
120.75
31
0
0
LINE
5
195
100
AcDbEntity
8
0
100
AcDbLine
10
57.749999999999993
20
120
30
0
11
57.749999999999993
21
120.75
31
0
0
LINE
5
196
100
AcDbEntity
8
0
100
AcDbLine
10
59.25
20
120.75
30
0
11
59.25
21
120
31
0
0
LINE
5
197
100
AcDbEntity
8
0
100
AcDbLine
10
59.25
20
120
30
0
11
77
21
120
31
0
0
LINE
5
198
100
AcDbEntity
8
0
100
AcDbLine
10
40.75
20
120
30
0
11
57.749999999999993
21
120
31
0
0
LINE
5
199
100
AcDbEntity
8
0
100
AcDbLine
10
80
20
64
30
0
11
80
21
34.250000000000007
31
0
0
LINE
5
200
100
AcDbEntity
8
0
100
AcDbLine
10
80
20
32.75
30
0
11
80
21
3.0000000000000071
31
0
0
LINE
5
201
100
AcDbEntity
8
0
100
AcDbLine
10
1.2629048815654008e-31
20
34.250000000000007
30
0
11
-0.75000000000000022
21
34.250000000000007
31
0
0
LINE
5
202
100
AcDbEntity
8
0
100
AcDbLine
10
-0.75000000000000022
20
32.75
30
0
11
1.2022854472502611e-31
21
32.75
31
0
0
LINE
5
203
100
AcDbEntity
8
0
100
AcDbLine
10
80
20
117
30
0
11
80
21
91.25
31
0
0
LINE
5
204
100
AcDbEntity
8
0
100
AcDbLine
10
80
20
89.750000000000014
30
0
11
80
21
64
31
0
0
ENDSEC
0
SECTION
2
OBJECTS
0
DICTIONARY
5
C
100
AcDbDictionary
3
ACAD_GROUP
350
D
3
ACAD_MLINESTYLE
350
17
0
DICTIONARY
5
D
100
AcDbDictionary
0
DICTIONARY
5
1A
330
C
100
AcDbDictionary
0
DICTIONARY
5
17
100
AcDbDictionary
0
ENDSEC
0
EOF
