0
SECTION
2
HEADER
9
$INSUNITS
70
4
9
$ACADVER
1
AC1014
9
$HANDSEED
5
FFFF
0
ENDSEC
0
SECTION
2
TABLES
0
TABLE
2
VPORT
5
8
100
AcDbSymbolTable
0
ENDTAB
0
TABLE
2
LTYPE
5
5
100
AcDbSymbolTable
0
LTYPE
5
14
100
AcDbSymbolTableRecord
100
AcDbLinetypeTableRecord
2
BYBLOCK
70
0
0
LTYPE
5
15
100
AcDbSymbolTableRecord
100
AcDbLinetypeTableRecord
2
BYLAYER
70
0
0
ENDTAB
0
TABLE
2
LAYER
5
2
100
AcDbSymbolTable
70
2
0
LAYER
5
50
100
AcDbSymbolTableRecord
100
AcDbLayerTableRecord
2
0
70
0
6
CONTINUOUS
0
ENDTAB
0
TABLE
2
STYLE
5
3
100
AcDbSymbolTable
70
1
0
STYLE
5
11
100
AcDbSymbolTableRecord
100
AcDbTextStyleTableRecord
2
STANDARD
70
0
0
ENDTAB
0
TABLE
2
VIEW
5
6
100
AcDbSymbolTable
70
0
0
ENDTAB
0
TABLE
2
UCS
5
7
100
AcDbSymbolTable
70
0
0
ENDTAB
0
TABLE
2
APPID
5
9
100
AcDbSymbolTable
70
2
0
APPID
5
12
100
AcDbSymbolTableRecord
100
AcDbRegAppTableRecord
2
ACAD
70
0
0
ENDTAB
0
TABLE
2
DIMSTYLE
5
A
100
AcDbSymbolTable
70
1
0
ENDTAB
0
TABLE
2
BLOCK_RECORD
5
1
100
AcDbSymbolTable
70
1
0
BLOCK_RECORD
5
1F
100
AcDbSymbolTableRecord
100
AcDbBlockTableRecord
2
*MODEL_SPACE
0
BLOCK_RECORD
5
1B
100
AcDbSymbolTableRecord
100
AcDbBlockTableRecord
2
*PAPER_SPACE
0
ENDTAB
0
ENDSEC
0
SECTION
2
BLOCKS
0
BLOCK
5
20
100
AcDbEntity
100
AcDbBlockBegin
2
*MODEL_SPACE
0
ENDBLK
5
21
100
AcDbEntity
100
AcDbBlockEnd
0
BLOCK
5
1C
100
AcDbEntity
100
AcDbBlockBegin
2
*PAPER_SPACE
0
ENDBLK
5
1D
100
AcDbEntity
100
AcDbBlockEnd
0
ENDSEC
0
SECTION
2
ENTITIES
0
LWPOLYLINE
5
100
100
AcDbEntity
8
0
100
AcDbPolyline
90
10
70
1
43
0.0
10
-5.2861666251469153
20
-191.49584955219785
10
-6.7861666251469144
20
-191.49584955219785
10
-6.7861666251469144
20
-192.27401421460829
42
0.37089149403912441
10
-16.008001962736486
20
-201.49584955219785
42
0.037552883213912702
10
-16.008001962736486
20
-202.99584955219785
42
0.37089149403912441
10
-6.7861666251469144
20
-212.21768488978742
42
0.03755288321391289
10
-5.2861666251469153
20
-212.21768488978742
42
0.37089149403912441
10
3.935668712442657
20
-202.99584955219785
42
0.037552883213912702
10
3.935668712442657
20
-201.49584955219785
42
0.37089149403912441
10
-5.2861666251469153
20
-192.27401421460829
0
LINE
5
101
100
AcDbEntity
8
0
100
AcDbLine
10
-5.2861666251469153
20
-212.99584955219785
30
0
11
-6.7861666251469144
21
-212.99584955219785
31
0
0
LINE
5
102
100
AcDbEntity
8
0
100
AcDbLine
10
-6.7861666251469144
20
-212.99584955219785
30
0
11
-6.7861666251469144
21
-212.21768488978742
31
0
0
LINE
5
103
100
AcDbEntity
8
0
100
AcDbLine
10
-5.2861666251469153
20
-212.21768488978742
30
0
11
-5.2861666251469153
21
-212.99584955219785
31
0
0
LINE
5
104
100
AcDbEntity
8
0
100
AcDbLine
10
-16.786166625146915
20
-202.99584955219785
30
0
11
-16.008001962736483
21
-202.99584955219785
31
0
0
LINE
5
105
100
AcDbEntity
8
0
100
AcDbLine
10
-16.008001962736483
20
-201.49584955219785
30
0
11
-16.786166625146915
21
-201.49584955219785
31
0
0
LINE
5
106
100
AcDbEntity
8
0
100
AcDbLine
10
-16.786166625146915
20
-201.49584955219785
30
0
11
-16.786166625146915
21
-202.99584955219785
31
0
0
LINE
5
107
100
AcDbEntity
8
0
100
AcDbLine
10
4.7138333748530856
20
-201.49584955219785
30
0
11
4.7138333748530856
21
-202.99584955219785
31
0
0
ARC
5
108
100
AcDbEntity
8
0
100
AcDbCircle
10
-6.0361666251469153
20
-202.24584955219785
30
0
40
10.000000000000002
210
0
220
-0
230
1
100
AcDbArc
50
85.698777695329639
51
94.301222304670361
0
LINE
5
109
100
AcDbEntity
8
0
100
AcDbLine
10
4.7138333748530856
20
-202.99584955219785
30
0
11
3.9356687124426548
21
-202.99584955219785
31
0
0
LINE
5
110
100
AcDbEntity
8
0
100
AcDbLine
10
3.9356687124426548
20
-201.49584955219785
30
0
11
4.7138333748530856
21
-201.49584955219785
31
0
0
LWPOLYLINE
5
111
100
AcDbEntity
8
0
100
AcDbPolyline
90
14
70
1
43
0.0
10
29.467633374853087
20
-201.49584955219785
10
29.467633374853087
20
-202.99584955219785
10
28.689468712442654
20
-202.99584955219785
42
-0.37089149403912441
10
19.467633374853087
20
-212.21768488978742
42
-0.037552883213912834
10
17.96763337485309
20
-212.21768488978742
42
-0.37089149403912441
10
8.7457980372635209
20
-202.99584955219785
10
7.9676333748530892
20
-202.99584955219785
10
7.9676333748530892
20
-201.49584955219785
10
8.7457980372635209
20
-201.49584955219785
42
-0.37089149403912441
10
17.96763337485309
20
-192.27401421460829
10
17.96763337485309
20
-191.49584955219785
10
19.467633374853087
20
-191.49584955219785
10
19.467633374853087
20
-192.27401421460829
42
-0.37089149403912441
10
28.689468712442658
20
-201.49584955219785
0
LINE
5
112
100
AcDbEntity
8
0
100
AcDbLine
10
19.467633374853087
20
-212.99584955219785
30
0
11
17.96763337485309
21
-212.99584955219785
31
0
0
ARC
5
113
100
AcDbEntity
8
0
100
AcDbCircle
10
18.71763337485309
20
-202.24584955219785
30
0
40
10.000000000000004
210
0
220
0
230
1
100
AcDbArc
50
175.69877769532965
51
184.30122230467038
0
LINE
5
114
100
AcDbEntity
8
0
100
AcDbLine
10
17.96763337485309
20
-212.99584955219785
30
0
11
17.96763337485309
21
-212.21768488978742
31
0
0
ARC
5
115
100
AcDbEntity
8
0
100
AcDbCircle
10
18.71763337485309
20
-202.24584955219785
30
0
40
10.000000000000007
210
-0
220
0
230
1
100
AcDbArc
50
-4.3012223046703557
51
4.3012223046703735
0
LINE
5
116
100
AcDbEntity
8
0
100
AcDbLine
10
19.467633374853087
20
-212.21768488978742
30
0
11
19.467633374853087
21
-212.99584955219785
31
0
0
ARC
5
117
100
AcDbEntity
8
0
100
AcDbCircle
10
18.71763337485309
20
-202.24584955219785
30
0
40
10.000000000000002
210
0
220
-0
230
1
100
AcDbArc
50
85.698777695329667
51
94.301222304670361
0
LWPOLYLINE
5
118
100
AcDbEntity
8
0
100
AcDbPolyline
90
14
70
1
43
0.0
10
54.221433374853092
20
-201.49584955219785
10
54.221433374853092
20
-202.99584955219785
10
53.443268712442659
20
-202.99584955219785
42
-0.37089149403912441
10
44.221433374853092
20
-212.21768488978742
42
-0.037552883213912834
10
42.721433374853099
20
-212.21768488978742
42
-0.37089149403912441
10
33.499598037263524
20
-202.99584955219785
10
32.721433374853092
20
-202.99584955219785
10
32.721433374853092
20
-201.49584955219785
10
33.499598037263524
20
-201.49584955219785
42
-0.37089149403912441
10
42.721433374853092
20
-192.27401421460829
10
42.721433374853092
20
-191.49584955219785
10
44.221433374853092
20
-191.49584955219785
10
44.221433374853085
20
-192.27401421460829
42
-0.37089149403912441
10
53.443268712442666
20
-201.49584955219785
0
LINE
5
119
100
AcDbEntity
8
0
100
AcDbLine
10
44.221433374853092
20
-212.99584955219785
30
0
11
42.721433374853092
21
-212.99584955219785
31
0
0
ARC
5
120
100
AcDbEntity
8
0
100
AcDbCircle
10
43.471433374853092
20
-202.24584955219785
30
0
40
10.000000000000004
210
0
220
0
230
1
100
AcDbArc
50
175.69877769532965
51
184.30122230467038
0
LINE
5
121
100
AcDbEntity
8
0
100
AcDbLine
10
42.721433374853092
20
-212.99584955219785
30
0
11
42.721433374853092
21
-212.21768488978742
31
0
0
ARC
5
122
100
AcDbEntity
8
0
100
AcDbCircle
10
43.471433374853092
20
-202.24584955219785
30
0
40
10.000000000000007
210
-0
220
0
230
1
100
AcDbArc
50
-4.3012223046703557
51
4.3012223046703735
0
LINE
5
123
100
AcDbEntity
8
0
100
AcDbLine
10
44.221433374853092
20
-212.21768488978742
30
0
11
44.221433374853092
21
-212.99584955219785
31
0
0
ARC
5
124
100
AcDbEntity
8
0
100
AcDbCircle
10
43.471433374853092
20
-202.24584955219785
30
0
40
10.000000000000002
210
0
220
-0
230
1
100
AcDbArc
50
85.698777695329639
51
94.301222304670361
0
LWPOLYLINE
5
125
100
AcDbEntity
8
0
100
AcDbPolyline
90
14
70
1
43
0.0
10
78.97523337485309
20
-201.49584955219785
10
78.97523337485309
20
-202.99584955219785
10
78.197068712442658
20
-202.99584955219785
42
-0.37089149403912441
10
68.97523337485309
20
-212.21768488978742
42
-0.037552883213912834
10
67.475233374853104
20
-212.21768488978742
42
-0.37089149403912441
10
58.253398037263537
20
-202.99584955219785
10
57.475233374853104
20
-202.99584955219785
10
57.47523337485309
20
-201.49584955219785
10
58.253398037263523
20
-201.49584955219785
42
-0.37089149403912441
10
67.475233374853104
20
-192.27401421460829
10
67.475233374853104
20
-191.49584955219785
10
68.97523337485309
20
-191.49584955219785
10
68.97523337485309
20
-192.27401421460829
42
-0.37089149403912441
10
78.197068712442658
20
-201.49584955219785
0
LINE
5
126
100
AcDbEntity
8
0
100
AcDbLine
10
68.97523337485309
20
-212.99584955219785
30
0
11
67.475233374853104
21
-212.99584955219785
31
0
0
ARC
5
127
100
AcDbEntity
8
0
100
AcDbCircle
10
68.22523337485309
20
-202.24584955219785
30
0
40
10.000000000000004
210
0
220
0
230
1
100
AcDbArc
50
175.69877769532965
51
184.30122230467038
0
LINE
5
128
100
AcDbEntity
8
0
100
AcDbLine
10
67.475233374853104
20
-212.99584955219785
30
0
11
67.475233374853104
21
-212.21768488978742
31
0
0
ARC
5
129
100
AcDbEntity
8
0
100
AcDbCircle
10
68.22523337485309
20
-202.24584955219785
30
0
40
10.000000000000007
210
-0
220
0
230
1
100
AcDbArc
50
-4.3012223046703557
51
4.3012223046703735
0
LINE
5
130
100
AcDbEntity
8
0
100
AcDbLine
10
68.97523337485309
20
-212.21768488978742
30
0
11
68.97523337485309
21
-212.99584955219785
31
0
0
ARC
5
131
100
AcDbEntity
8
0
100
AcDbCircle
10
68.22523337485309
20
-202.24584955219785
30
0
40
10.000000000000002
210
0
220
-0
230
1
100
AcDbArc
50
85.698777695329639
51
94.30122230467029
0
LWPOLYLINE
5
132
100
AcDbEntity
8
0
100
AcDbPolyline
90
14
70
1
43
0.0
10
103.7290333748531
20
-201.49584955219785
10
103.7290333748531
20
-202.99584955219785
10
102.95086871244267
20
-202.99584955219785
42
-0.37089149403912441
10
93.729033374853103
20
-212.21768488978742
42
-0.037552883213912834
10
92.229033374853117
20
-212.21768488978742
42
-0.37089149403912441
10
83.007198037263521
20
-202.99584955219785
10
82.229033374853088
20
-202.99584955219785
10
82.229033374853117
20
-201.49584955219785
10
83.007198037263535
20
-201.49584955219785
42
-0.37089149403912441
10
92.229033374853088
20
-192.27401421460829
10
92.229033374853088
20
-191.49584955219785
10
93.729033374853103
20
-191.49584955219785
10
93.729033374853103
20
-192.27401421460829
42
-0.37089149403912441
10
102.95086871244267
20
-201.49584955219785
0
LINE
5
133
100
AcDbEntity
8
0
100
AcDbLine
10
93.729033374853103
20
-212.99584955219785
30
0
11
92.229033374853088
21
-212.99584955219785
31
0
0
ARC
5
134
100
AcDbEntity
8
0
100
AcDbCircle
10
92.979033374853103
20
-202.24584955219785
30
0
40
10.000000000000004
210
0
220
0
230
1
100
AcDbArc
50
175.69877769532965
51
184.30122230467038
0
LINE
5
135
100
AcDbEntity
8
0
100
AcDbLine
10
92.229033374853088
20
-212.99584955219785
30
0
11
92.229033374853088
21
-212.21768488978742
31
0
0
ARC
5
136
100
AcDbEntity
8
0
100
AcDbCircle
10
92.979033374853103
20
-202.24584955219785
30
0
40
10.000000000000007
210
-0
220
0
230
1
100
AcDbArc
50
-4.3012223046703557
51
4.3012223046703735
0
LINE
5
137
100
AcDbEntity
8
0
100
AcDbLine
10
93.729033374853103
20
-212.21768488978742
30
0
11
93.729033374853103
21
-212.99584955219785
31
0
0
ARC
5
138
100
AcDbEntity
8
0
100
AcDbCircle
10
92.979033374853103
20
-202.24584955219785
30
0
40
10.000000000000002
210
0
220
-0
230
1
100
AcDbArc
50
85.698777695329639
51
94.301222304670446
0
LWPOLYLINE
5
139
100
AcDbEntity
8
0
100
AcDbPolyline
90
14
70
1
43
0.0
10
128.4828333748531
20
-201.49584955219785
10
128.4828333748531
20
-202.99584955219785
10
127.70466871244268
20
-202.99584955219785
42
-0.37089149403912441
10
118.48283337485312
20
-212.21768488978742
42
-0.037552883213912834
10
116.98283337485313
20
-212.21768488978742
42
-0.37089149403912441
10
107.76099803726353
20
-202.99584955219785
10
106.9828333748531
20
-202.99584955219785
10
106.98283337485313
20
-201.49584955219785
10
107.76099803726355
20
-201.49584955219785
42
-0.37089149403912441
10
116.9828333748531
20
-192.27401421460829
10
116.9828333748531
20
-191.49584955219785
10
118.48283337485312
20
-191.49584955219785
10
118.48283337485312
20
-192.27401421460829
42
-0.37089149403912441
10
127.70466871244268
20
-201.49584955219785
0
LINE
5
140
100
AcDbEntity
8
0
100
AcDbLine
10
118.48283337485312
20
-212.99584955219785
30
0
11
116.9828333748531
21
-212.99584955219785
31
0
0
ARC
5
141
100
AcDbEntity
8
0
100
AcDbCircle
10
117.73283337485312
20
-202.24584955219785
30
0
40
10.000000000000004
210
0
220
0
230
1
100
AcDbArc
50
175.69877769532965
51
184.30122230467038
0
LINE
5
142
100
AcDbEntity
8
0
100
AcDbLine
10
116.9828333748531
20
-212.99584955219785
30
0
11
116.9828333748531
21
-212.21768488978742
31
0
0
ARC
5
143
100
AcDbEntity
8
0
100
AcDbCircle
10
117.73283337485312
20
-202.24584955219785
30
0
40
10.000000000000007
210
-0
220
0
230
1
100
AcDbArc
50
-4.3012223046703557
51
4.3012223046703735
0
LINE
5
144
100
AcDbEntity
8
0
100
AcDbLine
10
118.48283337485312
20
-212.21768488978742
30
0
11
118.48283337485312
21
-212.99584955219785
31
0
0
ARC
5
145
100
AcDbEntity
8
0
100
AcDbCircle
10
117.73283337485312
20
-202.24584955219785
30
0
40
10.000000000000002
210
0
220
-0
230
1
100
AcDbArc
50
85.698777695329639
51
94.301222304670446
0
ENDSEC
0
SECTION
2
OBJECTS
0
DICTIONARY
5
C
100
AcDbDictionary
3
ACAD_GROUP
350
D
3
ACAD_MLINESTYLE
350
17
0
DICTIONARY
5
D
100
AcDbDictionary
0
DICTIONARY
5
1A
330
C
100
AcDbDictionary
0
DICTIONARY
5
17
100
AcDbDictionary
0
ENDSEC
0
EOF
