0
SECTION
2
HEADER
9
$INSUNITS
70
4
9
$ACADVER
1
AC1014
9
$HANDSEED
5
FFFF
0
ENDSEC
0
SECTION
2
TABLES
0
TABLE
2
VPORT
5
8
100
AcDbSymbolTable
0
ENDTAB
0
TABLE
2
LTYPE
5
5
100
AcDbSymbolTable
0
LTYPE
5
14
100
AcDbSymbolTableRecord
100
AcDbLinetypeTableRecord
2
BYBLOCK
70
0
0
LTYPE
5
15
100
AcDbSymbolTableRecord
100
AcDbLinetypeTableRecord
2
BYLAYER
70
0
0
ENDTAB
0
TABLE
2
LAYER
5
2
100
AcDbSymbolTable
70
2
0
LAYER
5
50
100
AcDbSymbolTableRecord
100
AcDbLayerTableRecord
2
0
70
0
6
CONTINUOUS
0
ENDTAB
0
TABLE
2
STYLE
5
3
100
AcDbSymbolTable
70
1
0
STYLE
5
11
100
AcDbSymbolTableRecord
100
AcDbTextStyleTableRecord
2
STANDARD
70
0
0
ENDTAB
0
TABLE
2
VIEW
5
6
100
AcDbSymbolTable
70
0
0
ENDTAB
0
TABLE
2
UCS
5
7
100
AcDbSymbolTable
70
0
0
ENDTAB
0
TABLE
2
APPID
5
9
100
AcDbSymbolTable
70
2
0
APPID
5
12
100
AcDbSymbolTableRecord
100
AcDbRegAppTableRecord
2
ACAD
70
0
0
ENDTAB
0
TABLE
2
DIMSTYLE
5
A
100
AcDbSymbolTable
70
1
0
ENDTAB
0
TABLE
2
BLOCK_RECORD
5
1
100
AcDbSymbolTable
70
1
0
BLOCK_RECORD
5
1F
100
AcDbSymbolTableRecord
100
AcDbBlockTableRecord
2
*MODEL_SPACE
0
BLOCK_RECORD
5
1B
100
AcDbSymbolTableRecord
100
AcDbBlockTableRecord
2
*PAPER_SPACE
0
ENDTAB
0
ENDSEC
0
SECTION
2
BLOCKS
0
BLOCK
5
20
100
AcDbEntity
100
AcDbBlockBegin
2
*MODEL_SPACE
0
ENDBLK
5
21
100
AcDbEntity
100
AcDbBlockEnd
0
BLOCK
5
1C
100
AcDbEntity
100
AcDbBlockBegin
2
*PAPER_SPACE
0
ENDBLK
5
1D
100
AcDbEntity
100
AcDbBlockEnd
0
ENDSEC
0
SECTION
2
ENTITIES
0
LINE
5
100
100
AcDbEntity
8
0
100
AcDbLine
10
134.36581394304511
20
-128.26925802812974
30
0
11
134.36581394304511
21
-125.76925802812977
31
0
0
LINE
5
101
100
AcDbEntity
8
0
100
AcDbLine
10
146.36581394304511
20
-125.76925802812977
30
0
11
146.36581394304511
21
-128.26925802812974
31
0
0
LINE
5
102
100
AcDbEntity
8
0
100
AcDbLine
10
134.36581394304511
20
-101.76925802812977
30
0
11
132.86581394304511
21
-101.76925802812977
31
0
0
LINE
5
103
100
AcDbEntity
8
0
100
AcDbLine
10
146.36581394304511
20
-125.76925802812977
30
0
11
147.86581394304511
21
-125.76925802812977
31
0
0
LINE
5
104
100
AcDbEntity
8
0
100
AcDbLine
10
132.86581394304511
20
-125.76925802812977
30
0
11
134.36581394304511
21
-125.76925802812977
31
0
0
LINE
5
105
100
AcDbEntity
8
0
100
AcDbLine
10
134.36581394304511
20
-101.76925802812977
30
0
11
134.36581394304511
21
-99.269258028129769
31
0
0
LWPOLYLINE
5
106
100
AcDbEntity
8
0
100
AcDbPolyline
90
4
70
1
43
0.0
10
139.61581394304511
20
-98.269258028129784
10
141.11581394304511
20
-98.269258028129784
10
141.11581394304511
20
-97.519258028129769
10
139.61581394304511
20
-97.519258028129769
0
LINE
5
107
100
AcDbEntity
8
0
100
AcDbLine
10
146.36581394304511
20
-99.269258028129769
30
0
11
146.36581394304511
21
-101.76925802812977
31
0
0
LINE
5
108
100
AcDbEntity
8
0
100
AcDbLine
10
147.86581394304511
20
-101.76925802812977
30
0
11
146.36581394304511
21
-101.76925802812977
31
0
0
ARC
5
109
100
AcDbEntity
8
0
100
AcDbCircle
10
135.36581394304511
20
-99.269258028129769
30
0
40
0.99999999999999645
210
0
220
-0
230
1
100
AcDbArc
50
90
51
180
0
ARC
5
110
100
AcDbEntity
8
0
100
AcDbCircle
10
145.36581394304511
20
-99.269258028129769
30
0
40
0.99999999999999645
210
0
220
-0
230
1
100
AcDbArc
50
0
51
90
0
ARC
5
111
100
AcDbEntity
8
0
100
AcDbCircle
10
135.36581394304511
20
-128.26925802812974
30
0
40
0.99999999999999645
210
0
220
-0
230
1
100
AcDbArc
50
180
51
270
0
ARC
5
112
100
AcDbEntity
8
0
100
AcDbCircle
10
145.36581394304511
20
-128.26925802812974
30
0
40
0.99999999999999645
210
-0
220
0
230
1
100
AcDbArc
50
-90
51
0
0
LWPOLYLINE
5
113
100
AcDbEntity
8
0
100
AcDbPolyline
90
53
70
1
43
0.0
10
133.12728208520622
20
-15.50411806006843
10
125.21479822406087
20
-15.50411806006843
10
125.21479822406087
20
-17.504118060068432
10
125.21479822406087
20
-27.754118060068429
10
124.46479822406087
20
-27.754118060068429
10
124.46479822406087
20
-29.254118060068429
10
125.21479822406087
20
-29.254118060068425
10
125.21479822406087
20
-39.504118060068421
10
133.12728208520622
20
-39.504118060068421
10
133.12728208520622
20
-42.004118060068421
42
0.41421356237309503
10
134.12728208520622
20
-43.004118060068421
10
138.37728208520622
20
-43.004118060068421
10
138.37728208520622
20
-43.754118060068436
10
139.87728208520619
20
-43.754118060068421
10
139.87728208520619
20
-43.004118060068421
10
144.12728208520622
20
-43.004118060068421
42
0.41421356237309503
10
145.12728208520622
20
-42.004118060068421
10
145.12728208520622
20
-39.504118060068421
10
157.12728208520619
20
-39.504118060068421
10
157.12728208520619
20
-42.004118060068421
42
0.41421356237309503
10
158.12728208520619
20
-43.004118060068421
10
162.37728208520622
20
-43.004118060068421
10
162.37728208520622
20
-43.754118060068414
10
163.87728208520622
20
-43.754118060068421
10
163.87728208520622
20
-43.004118060068421
10
168.12728208520622
20
-43.004118060068429
42
0.41421356237309764
10
169.12728208520619
20
-42.004118060068421
10
169.12728208520619
20
-39.504118060068421
10
175.2147982240609
20
-39.504118060068421
10
175.2147982240609
20
-29.254118060068421
10
175.96479822406087
20
-29.254118060068429
10
175.96479822406087
20
-27.754118060068429
10
175.2147982240609
20
-27.754118060068421
10
175.2147982240609
20
-15.50411806006843
10
169.12728208520619
20
-15.50411806006843
10
169.12728208520619
20
-13.004118060068436
42
0.41421356237309631
10
168.12728208520622
20
-12.004118060068434
10
163.87728208520622
20
-12.004118060068434
10
163.87728208520622
20
-11.254118060068432
10
162.37728208520622
20
-11.254118060068441
10
162.37728208520622
20
-12.004118060068434
10
158.12728208520619
20
-12.004118060068434
42
0.41421356237309503
10
157.12728208520619
20
-13.00411806006843
10
157.12728208520619
20
-15.50411806006843
10
145.12728208520622
20
-15.50411806006843
10
145.12728208520622
20
-13.004118060068436
42
0.4142135623730937
10
144.12728208520622
20
-12.004118060068434
10
139.87728208520619
20
-12.004118060068434
10
139.87728208520619
20
-11.168646231724168
10
138.37728208520622
20
-11.168646231724168
10
138.37728208520622
20
-12.004118060068434
10
134.12728208520622
20
-12.004118060068434
42
0.41421356237309503
10
133.12728208520622
20
-13.00411806006843
0
LWPOLYLINE
5
114
100
AcDbEntity
8
0
100
AcDbPolyline
90
4
70
1
43
0.0
10
131.62728208520622
20
-25.504118060068439
10
134.62728208520619
20
-25.504118060068439
10
134.62728208520619
20
-31.504118060068418
10
131.62728208520622
20
-31.504118060068418
0
CIRCLE
5
115
100
AcDbEntity
8
0
100
AcDbCircle
10
165.12728208520622
20
-28.504118060068429
30
0
40
4.5000000000000018
210
0
220
0
230
1
0
LINE
5
116
100
AcDbEntity
8
0
100
AcDbLine
10
125.21479822406087
20
-29.254118060068425
30
0
11
125.21479822406087
21
-27.754118060068429
31
0
0
LINE
5
117
100
AcDbEntity
8
0
100
AcDbLine
10
138.37728208520622
20
-43.004118060068421
30
0
11
139.87728208520619
21
-43.004118060068421
31
0
0
LINE
5
118
100
AcDbEntity
8
0
100
AcDbLine
10
162.37728208520622
20
-43.004118060068421
30
0
11
163.87728208520622
21
-43.004118060068421
31
0
0
LINE
5
119
100
AcDbEntity
8
0
100
AcDbLine
10
138.37728208520622
20
-12.004118060068434
30
0
11
139.87728208520619
21
-12.004118060068434
31
0
0
CIRCLE
5
120
100
AcDbEntity
8
0
100
AcDbCircle
10
153.12728208520622
20
-28.504118060068429
30
0
40
2.5
210
0
220
0
230
1
0
LINE
5
121
100
AcDbEntity
8
0
100
AcDbLine
10
175.2147982240609
20
-27.754118060068421
30
0
11
175.2147982240609
21
-29.254118060068421
31
0
0
LINE
5
122
100
AcDbEntity
8
0
100
AcDbLine
10
162.37728208520622
20
-12.004118060068434
30
0
11
163.87728208520622
21
-12.004118060068434
31
0
0
LWPOLYLINE
5
123
100
AcDbEntity
8
0
100
AcDbPolyline
90
4
70
1
43
0.0
10
132.11581394304511
20
-114.51925802812977
10
132.86581394304511
20
-114.51925802812977
10
132.86581394304511
20
-113.01925802812977
10
132.11581394304511
20
-113.01925802812977
0
LWPOLYLINE
5
124
100
AcDbEntity
8
0
100
AcDbPolyline
90
4
70
1
43
0.0
10
141.11581394304511
20
-130.01925802812974
10
139.61581394304514
20
-130.01925802812974
10
139.61581394304514
20
-129.26925802812971
10
141.11581394304511
20
-129.26925802812971
0
LWPOLYLINE
5
125
100
AcDbEntity
8
0
100
AcDbPolyline
90
4
70
1
43
0.0
10
148.61581394304511
20
-114.51925802812978
10
147.86581394304511
20
-114.51925802812978
10
147.86581394304511
20
-113.01925802812976
10
148.61581394304511
20
-113.01925802812976
0
LINE
5
126
100
AcDbEntity
8
0
100
AcDbLine
10
141.11581394304511
20
-98.269258028129784
30
0
11
145.36581394304511
21
-98.269258028129784
31
0
0
LINE
5
127
100
AcDbEntity
8
0
100
AcDbLine
10
135.36581394304511
20
-98.269258028129784
30
0
11
139.61581394304511
21
-98.269258028129784
31
0
0
LINE
5
128
100
AcDbEntity
8
0
100
AcDbLine
10
132.86581394304511
20
-101.76925802812977
30
0
11
132.86581394304511
21
-113.01925802812977
31
0
0
LINE
5
129
100
AcDbEntity
8
0
100
AcDbLine
10
132.86581394304511
20
-101.76925802812977
30
0
11
132.86581394304511
21
-113.01925802812977
31
0
0
LINE
5
130
100
AcDbEntity
8
0
100
AcDbLine
10
132.86581394304511
20
-114.51925802812977
30
0
11
132.86581394304511
21
-125.76925802812977
31
0
0
LINE
5
131
100
AcDbEntity
8
0
100
AcDbLine
10
147.86581394304511
20
-125.76925802812977
30
0
11
147.86581394304511
21
-114.51925802812978
31
0
0
LINE
5
132
100
AcDbEntity
8
0
100
AcDbLine
10
147.86581394304511
20
-113.01925802812976
30
0
11
147.86581394304511
21
-101.76925802812977
31
0
0
LINE
5
133
100
AcDbEntity
8
0
100
AcDbLine
10
145.36581394304511
20
-129.26925802812971
30
0
11
141.11581394304511
21
-129.26925802812971
31
0
0
LINE
5
134
100
AcDbEntity
8
0
100
AcDbLine
10
139.61581394304514
20
-129.26925802812971
30
0
11
135.36581394304511
21
-129.26925802812971
31
0
0
CIRCLE
5
135
100
AcDbEntity
8
0
100
AcDbCircle
10
225.12728208520622
20
-28.504118060068429
30
0
40
4.5000000000000018
210
0
220
0
230
1
0
LWPOLYLINE
5
136
100
AcDbEntity
8
0
100
AcDbPolyline
90
45
70
1
43
0.0
10
217.12728208520619
20
-15.50411806006843
10
205.12728208520622
20
-15.50411806006843
10
205.12728208520622
20
-13.004118060068436
42
0.4142135623730937
10
204.12728208520619
20
-12.004118060068434
10
199.87728208520622
20
-12.004118060068434
10
198.37728208520622
20
-12.004118060068434
10
194.12728208520619
20
-12.004118060068434
42
0.41421356237309503
10
193.12728208520622
20
-13.00411806006843
10
193.12728208520622
20
-15.50411806006843
10
185.21479822406087
20
-15.50411806006843
10
185.21479822406087
20
-17.504118060068432
10
185.21479822406087
20
-27.754118060068429
10
184.46479822406087
20
-27.754118060068429
10
184.46479822406087
20
-29.254118060068429
10
185.21479822406087
20
-29.254118060068425
10
185.21479822406087
20
-39.504118060068421
10
193.12728208520622
20
-39.504118060068421
10
193.12728208520622
20
-42.004118060068421
42
0.41421356237309503
10
194.12728208520619
20
-43.004118060068421
10
198.37728208520622
20
-43.004118060068421
10
199.87728208520622
20
-43.004118060068421
10
204.12728208520619
20
-43.004118060068421
42
0.41421356237309503
10
205.12728208520622
20
-42.004118060068421
10
205.12728208520622
20
-39.504118060068421
10
217.12728208520619
20
-39.504118060068421
10
217.12728208520619
20
-42.004118060068421
42
0.41421356237309503
10
218.12728208520616
20
-43.004118060068421
10
222.37728208520622
20
-43.004118060068421
10
222.37728208520622
20
-43.754118060068414
10
223.87728208520622
20
-43.754118060068421
10
223.87728208520622
20
-43.004118060068421
10
228.12728208520622
20
-43.004118060068429
42
0.41421356237309764
10
229.12728208520619
20
-42.004118060068421
10
229.12728208520619
20
-39.504118060068421
10
235.2147982240609
20
-39.504118060068421
10
235.2147982240609
20
-29.254118060068421
10
235.2147982240609
20
-27.754118060068421
10
235.2147982240609
20
-15.50411806006843
10
229.12728208520619
20
-15.50411806006843
10
229.12728208520619
20
-13.004118060068436
42
0.41421356237309631
10
228.12728208520622
20
-12.004118060068434
10
223.87728208520622
20
-12.004118060068434
10
222.37728208520622
20
-12.004118060068434
10
218.12728208520616
20
-12.004118060068434
42
0.41421356237309503
10
217.12728208520619
20
-13.00411806006843
0
LWPOLYLINE
5
137
100
AcDbEntity
8
0
100
AcDbPolyline
90
4
70
1
43
0.0
10
194.62728208520619
20
-31.504118060068418
10
191.62728208520619
20
-31.504118060068418
10
191.62728208520619
20
-25.504118060068439
10
194.62728208520619
20
-25.504118060068439
0
LINE
5
138
100
AcDbEntity
8
0
100
AcDbLine
10
199.87728208520622
20
-43.754118060068421
30
0
11
199.87728208520622
21
-43.004118060068421
31
0
0
LINE
5
139
100
AcDbEntity
8
0
100
AcDbLine
10
235.96479822406087
20
-27.754118060068429
30
0
11
235.96479822406087
21
-29.254118060068429
31
0
0
LINE
5
140
100
AcDbEntity
8
0
100
AcDbLine
10
185.21479822406087
20
-29.254118060068425
30
0
11
185.21479822406087
21
-27.754118060068429
31
0
0
LINE
5
141
100
AcDbEntity
8
0
100
AcDbLine
10
198.37728208520622
20
-43.754118060068436
30
0
11
199.87728208520622
21
-43.754118060068421
31
0
0
CIRCLE
5
142
100
AcDbEntity
8
0
100
AcDbCircle
10
213.12728208520622
20
-28.504118060068429
30
0
40
2.5
210
0
220
0
230
1
0
LINE
5
143
100
AcDbEntity
8
0
100
AcDbLine
10
235.2147982240609
20
-27.754118060068421
30
0
11
235.96479822406087
21
-27.754118060068429
31
0
0
LINE
5
144
100
AcDbEntity
8
0
100
AcDbLine
10
198.37728208520622
20
-43.004118060068421
30
0
11
198.37728208520622
21
-43.754118060068436
31
0
0
LINE
5
145
100
AcDbEntity
8
0
100
AcDbLine
10
235.96479822406087
20
-29.254118060068429
30
0
11
235.2147982240609
21
-29.254118060068421
31
0
0
LINE
5
146
100
AcDbEntity
8
0
100
AcDbLine
10
222.37728208520622
20
-43.004118060068421
30
0
11
223.87728208520622
21
-43.004118060068421
31
0
0
LINE
5
147
100
AcDbEntity
8
0
100
AcDbLine
10
198.37728208520622
20
-12.004118060068434
30
0
11
198.37728208520622
21
-11.168646231724168
31
0
0
LINE
5
148
100
AcDbEntity
8
0
100
AcDbLine
10
223.87728208520622
20
-12.004118060068434
30
0
11
223.87728208520622
21
-11.254118060068432
31
0
0
LINE
5
149
100
AcDbEntity
8
0
100
AcDbLine
10
198.37728208520622
20
-11.168646231724168
30
0
11
199.87728208520622
21
-11.168646231724168
31
0
0
LINE
5
150
100
AcDbEntity
8
0
100
AcDbLine
10
199.87728208520622
20
-11.168646231724168
30
0
11
199.87728208520622
21
-12.004118060068434
31
0
0
LINE
5
151
100
AcDbEntity
8
0
100
AcDbLine
10
223.87728208520622
20
-11.254118060068432
30
0
11
222.37728208520622
21
-11.254118060068441
31
0
0
LINE
5
152
100
AcDbEntity
8
0
100
AcDbLine
10
222.37728208520622
20
-11.254118060068441
30
0
11
222.37728208520622
21
-12.004118060068434
31
0
0
CIRCLE
5
153
100
AcDbEntity
8
0
100
AcDbCircle
10
165.12728208520622
20
-66.504118060068436
30
0
40
4.5000000000000018
210
0
220
0
230
1
0
LWPOLYLINE
5
154
100
AcDbEntity
8
0
100
AcDbPolyline
90
45
70
1
43
0.0
10
157.12728208520619
20
-53.504118060068429
10
145.12728208520622
20
-53.504118060068429
10
145.12728208520622
20
-51.004118060068436
42
0.41421356237309243
10
144.12728208520622
20
-50.004118060068436
10
139.87728208520619
20
-50.004118060068436
10
138.37728208520622
20
-50.004118060068436
10
134.12728208520622
20
-50.004118060068436
42
0.41421356237309503
10
133.12728208520622
20
-51.004118060068429
10
133.12728208520622
20
-53.504118060068429
10
125.21479822406087
20
-53.504118060068429
10
125.21479822406087
20
-55.504118060068436
10
125.21479822406087
20
-65.754118060068421
10
124.46479822406087
20
-65.754118060068421
10
124.46479822406087
20
-67.254118060068436
10
125.21479822406087
20
-67.254118060068436
10
125.21479822406087
20
-77.504118060068436
10
133.12728208520622
20
-77.504118060068436
10
133.12728208520622
20
-80.004118060068436
42
0.41421356237309503
10
134.12728208520622
20
-81.004118060068436
10
138.37728208520622
20
-81.004118060068436
10
139.87728208520619
20
-81.004118060068436
10
144.12728208520622
20
-81.004118060068436
42
0.41421356237309503
10
145.12728208520622
20
-80.004118060068436
10
145.12728208520622
20
-77.504118060068436
10
157.12728208520619
20
-77.504118060068436
10
157.12728208520619
20
-80.004118060068436
42
0.41421356237309503
10
158.12728208520619
20
-81.004118060068436
10
162.37728208520622
20
-81.004118060068436
10
162.37728208520622
20
-81.754118060068421
10
163.87728208520622
20
-81.754118060068421
10
163.87728208520622
20
-81.004118060068436
10
168.12728208520622
20
-81.004118060068436
42
0.41421356237309503
10
169.12728208520619
20
-80.004118060068436
10
169.12728208520619
20
-77.504118060068436
10
175.2147982240609
20
-77.504118060068436
10
175.2147982240609
20
-67.254118060068436
10
175.2147982240609
20
-65.754118060068421
10
175.2147982240609
20
-53.504118060068429
10
169.12728208520619
20
-53.504118060068429
10
169.12728208520619
20
-51.004118060068436
42
0.41421356237309764
10
168.12728208520622
20
-50.004118060068436
10
163.87728208520622
20
-50.004118060068436
10
162.37728208520622
20
-50.004118060068436
10
158.12728208520619
20
-50.004118060068436
42
0.41421356237309503
10
157.12728208520619
20
-51.004118060068429
0
LWPOLYLINE
5
155
100
AcDbEntity
8
0
100
AcDbPolyline
90
4
70
1
43
0.0
10
134.62728208520619
20
-69.504118060068421
10
131.62728208520622
20
-69.504118060068421
10
131.62728208520622
20
-63.50411806006845
10
134.62728208520619
20
-63.50411806006845
0
LINE
5
156
100
AcDbEntity
8
0
100
AcDbLine
10
139.87728208520619
20
-81.754118060068421
30
0
11
139.87728208520619
21
-81.004118060068436
31
0
0
LINE
5
157
100
AcDbEntity
8
0
100
AcDbLine
10
175.96479822406087
20
-65.754118060068421
30
0
11
175.96479822406087
21
-67.254118060068436
31
0
0
LINE
5
158
100
AcDbEntity
8
0
100
AcDbLine
10
125.21479822406087
20
-67.254118060068436
30
0
11
125.21479822406087
21
-65.754118060068421
31
0
0
LINE
5
159
100
AcDbEntity
8
0
100
AcDbLine
10
138.37728208520622
20
-81.754118060068436
30
0
11
139.87728208520619
21
-81.754118060068421
31
0
0
CIRCLE
5
160
100
AcDbEntity
8
0
100
AcDbCircle
10
153.12728208520622
20
-66.504118060068436
30
0
40
2.5
210
0
220
0
230
1
0
LINE
5
161
100
AcDbEntity
8
0
100
AcDbLine
10
175.2147982240609
20
-65.754118060068421
30
0
11
175.96479822406087
21
-65.754118060068421
31
0
0
LINE
5
162
100
AcDbEntity
8
0
100
AcDbLine
10
138.37728208520622
20
-81.004118060068436
30
0
11
138.37728208520622
21
-81.754118060068436
31
0
0
LINE
5
163
100
AcDbEntity
8
0
100
AcDbLine
10
175.96479822406087
20
-67.254118060068436
30
0
11
175.2147982240609
21
-67.254118060068436
31
0
0
LINE
5
164
100
AcDbEntity
8
0
100
AcDbLine
10
162.37728208520622
20
-81.004118060068436
30
0
11
163.87728208520622
21
-81.004118060068436
31
0
0
LINE
5
165
100
AcDbEntity
8
0
100
AcDbLine
10
138.37728208520622
20
-50.004118060068436
30
0
11
138.37728208520622
21
-49.168646231724168
31
0
0
LINE
5
166
100
AcDbEntity
8
0
100
AcDbLine
10
163.87728208520622
20
-50.004118060068436
30
0
11
163.87728208520622
21
-49.254118060068436
31
0
0
LINE
5
167
100
AcDbEntity
8
0
100
AcDbLine
10
138.37728208520622
20
-49.168646231724168
30
0
11
139.87728208520619
21
-49.168646231724168
31
0
0
LINE
5
168
100
AcDbEntity
8
0
100
AcDbLine
10
139.87728208520619
20
-49.168646231724168
30
0
11
139.87728208520619
21
-50.004118060068436
31
0
0
LINE
5
169
100
AcDbEntity
8
0
100
AcDbLine
10
163.87728208520622
20
-49.254118060068436
30
0
11
162.37728208520622
21
-49.254118060068436
31
0
0
LINE
5
170
100
AcDbEntity
8
0
100
AcDbLine
10
162.37728208520622
20
-49.254118060068436
30
0
11
162.37728208520622
21
-50.004118060068436
31
0
0
CIRCLE
5
171
100
AcDbEntity
8
0
100
AcDbCircle
10
225.12728208520622
20
-66.504118060068436
30
0
40
4.5000000000000018
210
0
220
0
230
1
0
LWPOLYLINE
5
172
100
AcDbEntity
8
0
100
AcDbPolyline
90
45
70
1
43
0.0
10
217.12728208520619
20
-53.504118060068429
10
205.12728208520622
20
-53.504118060068429
10
205.12728208520622
20
-51.004118060068436
42
0.41421356237309243
10
204.12728208520619
20
-50.004118060068436
10
199.87728208520622
20
-50.004118060068436
10
198.37728208520622
20
-50.004118060068436
10
194.12728208520619
20
-50.004118060068436
42
0.41421356237309503
10
193.12728208520622
20
-51.004118060068429
10
193.12728208520622
20
-53.504118060068429
10
185.21479822406087
20
-53.504118060068429
10
185.21479822406087
20
-55.504118060068436
10
185.21479822406087
20
-65.754118060068421
10
184.46479822406087
20
-65.754118060068421
10
184.46479822406087
20
-67.254118060068436
10
185.21479822406087
20
-67.254118060068436
10
185.21479822406087
20
-77.504118060068436
10
193.12728208520622
20
-77.504118060068436
10
193.12728208520622
20
-80.004118060068436
42
0.41421356237309503
10
194.12728208520619
20
-81.004118060068436
10
198.37728208520622
20
-81.004118060068436
10
199.87728208520622
20
-81.004118060068436
10
204.12728208520619
20
-81.004118060068436
42
0.41421356237309503
10
205.12728208520622
20
-80.004118060068436
10
205.12728208520622
20
-77.504118060068436
10
217.12728208520619
20
-77.504118060068436
10
217.12728208520619
20
-80.004118060068436
42
0.41421356237309503
10
218.12728208520616
20
-81.004118060068436
10
222.37728208520622
20
-81.004118060068436
10
222.37728208520622
20
-81.754118060068421
10
223.87728208520622
20
-81.754118060068421
10
223.87728208520622
20
-81.004118060068436
10
228.12728208520622
20
-81.004118060068436
42
0.41421356237309503
10
229.12728208520619
20
-80.004118060068436
10
229.12728208520619
20
-77.504118060068436
10
235.2147982240609
20
-77.504118060068436
10
235.2147982240609
20
-67.254118060068436
10
235.2147982240609
20
-65.754118060068421
10
235.2147982240609
20
-53.504118060068429
10
229.12728208520619
20
-53.504118060068429
10
229.12728208520619
20
-51.004118060068436
42
0.41421356237309764
10
228.12728208520622
20
-50.004118060068436
10
223.87728208520622
20
-50.004118060068436
10
222.37728208520622
20
-50.004118060068436
10
218.12728208520616
20
-50.004118060068436
42
0.41421356237309503
10
217.12728208520619
20
-51.004118060068429
0
LWPOLYLINE
5
173
100
AcDbEntity
8
0
100
AcDbPolyline
90
4
70
1
43
0.0
10
194.62728208520619
20
-69.504118060068421
10
191.62728208520619
20
-69.504118060068421
10
191.62728208520619
20
-63.50411806006845
10
194.62728208520619
20
-63.50411806006845
0
LINE
5
174
100
AcDbEntity
8
0
100
AcDbLine
10
199.87728208520622
20
-81.754118060068421
30
0
11
199.87728208520622
21
-81.004118060068436
31
0
0
LINE
5
175
100
AcDbEntity
8
0
100
AcDbLine
10
235.96479822406087
20
-65.754118060068421
30
0
11
235.96479822406087
21
-67.254118060068436
31
0
0
LINE
5
176
100
AcDbEntity
8
0
100
AcDbLine
10
185.21479822406087
20
-67.254118060068436
30
0
11
185.21479822406087
21
-65.754118060068421
31
0
0
LINE
5
177
100
AcDbEntity
8
0
100
AcDbLine
10
198.37728208520622
20
-81.754118060068436
30
0
11
199.87728208520622
21
-81.754118060068421
31
0
0
CIRCLE
5
178
100
AcDbEntity
8
0
100
AcDbCircle
10
213.12728208520622
20
-66.504118060068436
30
0
40
2.5
210
0
220
0
230
1
0
LINE
5
179
100
AcDbEntity
8
0
100
AcDbLine
10
235.2147982240609
20
-65.754118060068421
30
0
11
235.96479822406087
21
-65.754118060068421
31
0
0
LINE
5
180
100
AcDbEntity
8
0
100
AcDbLine
10
198.37728208520622
20
-81.004118060068436
30
0
11
198.37728208520622
21
-81.754118060068436
31
0
0
LINE
5
181
100
AcDbEntity
8
0
100
AcDbLine
10
235.96479822406087
20
-67.254118060068436
30
0
11
235.2147982240609
21
-67.254118060068436
31
0
0
LINE
5
182
100
AcDbEntity
8
0
100
AcDbLine
10
222.37728208520622
20
-81.004118060068436
30
0
11
223.87728208520622
21
-81.004118060068436
31
0
0
LINE
5
183
100
AcDbEntity
8
0
100
AcDbLine
10
198.37728208520622
20
-50.004118060068436
30
0
11
198.37728208520622
21
-49.168646231724168
31
0
0
LINE
5
184
100
AcDbEntity
8
0
100
AcDbLine
10
223.87728208520622
20
-50.004118060068436
30
0
11
223.87728208520622
21
-49.254118060068436
31
0
0
LINE
5
185
100
AcDbEntity
8
0
100
AcDbLine
10
198.37728208520622
20
-49.168646231724168
30
0
11
199.87728208520622
21
-49.168646231724168
31
0
0
LINE
5
186
100
AcDbEntity
8
0
100
AcDbLine
10
199.87728208520622
20
-49.168646231724168
30
0
11
199.87728208520622
21
-50.004118060068436
31
0
0
LINE
5
187
100
AcDbEntity
8
0
100
AcDbLine
10
223.87728208520622
20
-49.254118060068436
30
0
11
222.37728208520622
21
-49.254118060068436
31
0
0
LINE
5
188
100
AcDbEntity
8
0
100
AcDbLine
10
222.37728208520622
20
-49.254118060068436
30
0
11
222.37728208520622
21
-50.004118060068436
31
0
0
LINE
5
189
100
AcDbEntity
8
0
100
AcDbLine
10
155.32952822875939
20
-128.26925802812974
30
0
11
155.32952822875939
21
-125.76925802812977
31
0
0
LWPOLYLINE
5
190
100
AcDbEntity
8
0
100
AcDbPolyline
90
4
70
1
43
0.0
10
168.82952822875944
20
-114.51925802812978
10
168.82952822875944
20
-113.01925802812976
10
169.57952822875941
20
-113.01925802812976
10
169.57952822875941
20
-114.51925802812978
0
LINE
5
191
100
AcDbEntity
8
0
100
AcDbLine
10
153.82952822875941
20
-114.51925802812977
30
0
11
153.82952822875941
21
-125.76925802812977
31
0
0
LWPOLYLINE
5
192
100
AcDbEntity
8
0
100
AcDbPolyline
90
4
70
1
43
0.0
10
160.57952822875939
20
-98.269258028129784
10
160.57952822875939
20
-97.519258028129769
10
162.07952822875941
20
-97.519258028129769
10
162.07952822875941
20
-98.269258028129784
0
LINE
5
193
100
AcDbEntity
8
0
100
AcDbLine
10
168.82952822875944
20
-125.76925802812977
30
0
11
168.82952822875944
21
-114.51925802812978
31
0
0
ARC
5
194
100
AcDbEntity
8
0
100
AcDbCircle
10
156.32952822875939
20
-99.269258028129769
30
0
40
0.99999999999999645
210
0
220
-0
230
1
100
AcDbArc
50
90
51
180
0
LINE
5
195
100
AcDbEntity
8
0
100
AcDbLine
10
160.57952822875944
20
-129.26925802812971
30
0
11
156.32952822875939
21
-129.26925802812971
31
0
0
LWPOLYLINE
5
196
100
AcDbEntity
8
0
100
AcDbPolyline
90
4
70
1
43
0.0
10
162.07952822875941
20
-129.26925802812971
10
162.07952822875941
20
-130.01925802812974
10
160.57952822875944
20
-130.01925802812974
10
160.57952822875944
20
-129.26925802812971
0
LINE
5
197
100
AcDbEntity
8
0
100
AcDbLine
10
168.82952822875944
20
-113.01925802812976
30
0
11
168.82952822875944
21
-101.76925802812977
31
0
0
LINE
5
198
100
AcDbEntity
8
0
100
AcDbLine
10
156.32952822875939
20
-98.269258028129784
30
0
11
160.57952822875939
21
-98.269258028129784
31
0
0
LINE
5
199
100
AcDbEntity
8
0
100
AcDbLine
10
167.32952822875941
20
-125.76925802812977
30
0
11
168.82952822875944
21
-125.76925802812977
31
0
0
LINE
5
200
100
AcDbEntity
8
0
100
AcDbLine
10
166.32952822875939
20
-129.26925802812971
30
0
11
162.07952822875941
21
-129.26925802812971
31
0
0
LINE
5
201
100
AcDbEntity
8
0
100
AcDbLine
10
153.82952822875941
20
-125.76925802812977
30
0
11
155.32952822875939
21
-125.76925802812977
31
0
0
LINE
5
202
100
AcDbEntity
8
0
100
AcDbLine
10
153.82952822875941
20
-101.76925802812977
30
0
11
153.82952822875941
21
-113.01925802812977
31
0
0
LWPOLYLINE
5
203
100
AcDbEntity
8
0
100
AcDbPolyline
90
4
70
1
43
0.0
10
153.07952822875939
20
-114.51925802812977
10
153.82952822875941
20
-114.51925802812977
10
153.82952822875941
20
-113.01925802812977
10
153.07952822875939
20
-113.01925802812977
0
ARC
5
204
100
AcDbEntity
8
0
100
AcDbCircle
10
166.32952822875939
20
-128.26925802812974
30
0
40
0.99999999999999645
210
-0
220
0
230
1
100
AcDbArc
50
-90
51
0
0
ARC
5
205
100
AcDbEntity
8
0
100
AcDbCircle
10
156.32952822875939
20
-128.26925802812974
30
0
40
0.99999999999999645
210
0
220
-0
230
1
100
AcDbArc
50
180
51
270
0
LINE
5
206
100
AcDbEntity
8
0
100
AcDbLine
10
167.32952822875941
20
-99.269258028129769
30
0
11
167.32952822875941
21
-101.76925802812977
31
0
0
LINE
5
207
100
AcDbEntity
8
0
100
AcDbLine
10
167.32952822875941
20
-125.76925802812977
30
0
11
167.32952822875941
21
-128.26925802812974
31
0
0
LINE
5
208
100
AcDbEntity
8
0
100
AcDbLine
10
153.82952822875941
20
-101.76925802812977
30
0
11
153.82952822875941
21
-113.01925802812977
31
0
0
LINE
5
209
100
AcDbEntity
8
0
100
AcDbLine
10
162.07952822875941
20
-98.269258028129784
30
0
11
166.32952822875939
21
-98.269258028129784
31
0
0
LINE
5
210
100
AcDbEntity
8
0
100
AcDbLine
10
168.82952822875944
20
-101.76925802812977
30
0
11
167.32952822875941
21
-101.76925802812977
31
0
0
ARC
5
211
100
AcDbEntity
8
0
100
AcDbCircle
10
166.32952822875939
20
-99.269258028129769
30
0
40
0.99999999999999645
210
0
220
0
230
1
100
AcDbArc
50
0
51
90
0
LINE
5
212
100
AcDbEntity
8
0
100
AcDbLine
10
155.32952822875939
20
-101.76925802812977
30
0
11
155.32952822875939
21
-99.269258028129769
31
0
0
LINE
5
213
100
AcDbEntity
8
0
100
AcDbLine
10
155.32952822875939
20
-101.76925802812977
30
0
11
153.82952822875941
21
-101.76925802812977
31
0
0
LINE
5
214
100
AcDbEntity
8
0
100
AcDbLine
10
176.29324251447369
20
-128.26925802812974
30
0
11
176.29324251447369
21
-125.76925802812977
31
0
0
LWPOLYLINE
5
215
100
AcDbEntity
8
0
100
AcDbPolyline
90
4
70
1
43
0.0
10
189.79324251447369
20
-114.51925802812978
10
189.79324251447369
20
-113.01925802812976
10
190.54324251447369
20
-113.01925802812976
10
190.54324251447369
20
-114.51925802812978
0
LINE
5
216
100
AcDbEntity
8
0
100
AcDbLine
10
174.79324251447369
20
-114.51925802812977
30
0
11
174.79324251447369
21
-125.76925802812977
31
0
0
LWPOLYLINE
5
217
100
AcDbEntity
8
0
100
AcDbPolyline
90
4
70
1
43
0.0
10
181.54324251447366
20
-98.269258028129784
10
181.54324251447366
20
-97.519258028129769
10
183.04324251447369
20
-97.519258028129769
10
183.04324251447369
20
-98.269258028129784
0
LINE
5
218
100
AcDbEntity
8
0
100
AcDbLine
10
189.79324251447369
20
-125.76925802812977
30
0
11
189.79324251447369
21
-114.51925802812978
31
0
0
ARC
5
219
100
AcDbEntity
8
0
100
AcDbCircle
10
177.29324251447369
20
-99.269258028129769
30
0
40
0.99999999999999645
210
0
220
-0
230
1
100
AcDbArc
50
90
51
180
0
LINE
5
220
100
AcDbEntity
8
0
100
AcDbLine
10
181.54324251447372
20
-129.26925802812971
30
0
11
177.29324251447369
21
-129.26925802812971
31
0
0
LWPOLYLINE
5
221
100
AcDbEntity
8
0
100
AcDbPolyline
90
4
70
1
43
0.0
10
183.04324251447369
20
-129.26925802812971
10
183.04324251447369
20
-130.01925802812974
10
181.54324251447372
20
-130.01925802812974
10
181.54324251447372
20
-129.26925802812971
0
LINE
5
222
100
AcDbEntity
8
0
100
AcDbLine
10
189.79324251447369
20
-113.01925802812976
30
0
11
189.79324251447369
21
-101.76925802812977
31
0
0
LINE
5
223
100
AcDbEntity
8
0
100
AcDbLine
10
177.29324251447369
20
-98.269258028129784
30
0
11
181.54324251447366
21
-98.269258028129784
31
0
0
LINE
5
224
100
AcDbEntity
8
0
100
AcDbLine
10
188.29324251447366
20
-125.76925802812977
30
0
11
189.79324251447369
21
-125.76925802812977
31
0
0
LINE
5
225
100
AcDbEntity
8
0
100
AcDbLine
10
187.29324251447369
20
-129.26925802812971
30
0
11
183.04324251447369
21
-129.26925802812971
31
0
0
LINE
5
226
100
AcDbEntity
8
0
100
AcDbLine
10
174.79324251447369
20
-125.76925802812977
30
0
11
176.29324251447369
21
-125.76925802812977
31
0
0
LINE
5
227
100
AcDbEntity
8
0
100
AcDbLine
10
174.79324251447369
20
-101.76925802812977
30
0
11
174.79324251447369
21
-113.01925802812977
31
0
0
LWPOLYLINE
5
228
100
AcDbEntity
8
0
100
AcDbPolyline
90
4
70
1
43
0.0
10
174.04324251447372
20
-114.51925802812977
10
174.79324251447369
20
-114.51925802812977
10
174.79324251447369
20
-113.01925802812977
10
174.04324251447372
20
-113.01925802812977
0
ARC
5
229
100
AcDbEntity
8
0
100
AcDbCircle
10
187.29324251447369
20
-128.26925802812974
30
0
40
0.99999999999999645
210
-0
220
0
230
1
100
AcDbArc
50
-90
51
0
0
ARC
5
230
100
AcDbEntity
8
0
100
AcDbCircle
10
177.29324251447369
20
-128.26925802812974
30
0
40
0.99999999999999645
210
0
220
-0
230
1
100
AcDbArc
50
180
51
270
0
LINE
5
231
100
AcDbEntity
8
0
100
AcDbLine
10
188.29324251447366
20
-99.269258028129769
30
0
11
188.29324251447366
21
-101.76925802812977
31
0
0
LINE
5
232
100
AcDbEntity
8
0
100
AcDbLine
10
188.29324251447366
20
-125.76925802812977
30
0
11
188.29324251447366
21
-128.26925802812974
31
0
0
LINE
5
233
100
AcDbEntity
8
0
100
AcDbLine
10
174.79324251447369
20
-101.76925802812977
30
0
11
174.79324251447369
21
-113.01925802812977
31
0
0
LINE
5
234
100
AcDbEntity
8
0
100
AcDbLine
10
183.04324251447369
20
-98.269258028129784
30
0
11
187.29324251447369
21
-98.269258028129784
31
0
0
LINE
5
235
100
AcDbEntity
8
0
100
AcDbLine
10
189.79324251447369
20
-101.76925802812977
30
0
11
188.29324251447366
21
-101.76925802812977
31
0
0
ARC
5
236
100
AcDbEntity
8
0
100
AcDbCircle
10
187.29324251447369
20
-99.269258028129769
30
0
40
0.99999999999999645
210
0
220
0
230
1
100
AcDbArc
50
0
51
90
0
LINE
5
237
100
AcDbEntity
8
0
100
AcDbLine
10
176.29324251447369
20
-101.76925802812977
30
0
11
176.29324251447369
21
-99.269258028129769
31
0
0
LINE
5
238
100
AcDbEntity
8
0
100
AcDbLine
10
176.29324251447369
20
-101.76925802812977
30
0
11
174.79324251447369
21
-101.76925802812977
31
0
0
LINE
5
239
100
AcDbEntity
8
0
100
AcDbLine
10
197.25695680018799
20
-128.26925802812974
30
0
11
197.25695680018799
21
-125.76925802812977
31
0
0
LWPOLYLINE
5
240
100
AcDbEntity
8
0
100
AcDbPolyline
90
4
70
1
43
0.0
10
210.75695680018799
20
-114.51925802812978
10
210.75695680018799
20
-113.01925802812976
10
211.50695680018799
20
-113.01925802812976
10
211.50695680018799
20
-114.51925802812978
0
LINE
5
241
100
AcDbEntity
8
0
100
AcDbLine
10
195.75695680018799
20
-114.51925802812977
30
0
11
195.75695680018799
21
-125.76925802812977
31
0
0
LWPOLYLINE
5
242
100
AcDbEntity
8
0
100
AcDbPolyline
90
4
70
1
43
0.0
10
202.50695680018796
20
-98.269258028129784
10
202.50695680018796
20
-97.519258028129769
10
204.00695680018799
20
-97.519258028129769
10
204.00695680018799
20
-98.269258028129784
0
LINE
5
243
100
AcDbEntity
8
0
100
AcDbLine
10
210.75695680018799
20
-125.76925802812977
30
0
11
210.75695680018799
21
-114.51925802812978
31
0
0
ARC
5
244
100
AcDbEntity
8
0
100
AcDbCircle
10
198.25695680018796
20
-99.269258028129769
30
0
40
0.99999999999999645
210
0
220
-0
230
1
100
AcDbArc
50
90
51
180
0
LINE
5
245
100
AcDbEntity
8
0
100
AcDbLine
10
202.50695680018799
20
-129.26925802812971
30
0
11
198.25695680018796
21
-129.26925802812971
31
0
0
LWPOLYLINE
5
246
100
AcDbEntity
8
0
100
AcDbPolyline
90
4
70
1
43
0.0
10
204.00695680018799
20
-129.26925802812971
10
204.00695680018799
20
-130.01925802812974
10
202.50695680018799
20
-130.01925802812974
10
202.50695680018799
20
-129.26925802812971
0
LINE
5
247
100
AcDbEntity
8
0
100
AcDbLine
10
210.75695680018799
20
-113.01925802812976
30
0
11
210.75695680018799
21
-101.76925802812977
31
0
0
LINE
5
248
100
AcDbEntity
8
0
100
AcDbLine
10
198.25695680018796
20
-98.269258028129784
30
0
11
202.50695680018796
21
-98.269258028129784
31
0
0
LINE
5
249
100
AcDbEntity
8
0
100
AcDbLine
10
209.25695680018799
20
-125.76925802812977
30
0
11
210.75695680018799
21
-125.76925802812977
31
0
0
LINE
5
250
100
AcDbEntity
8
0
100
AcDbLine
10
208.25695680018796
20
-129.26925802812971
30
0
11
204.00695680018799
21
-129.26925802812971
31
0
0
LINE
5
251
100
AcDbEntity
8
0
100
AcDbLine
10
195.75695680018799
20
-125.76925802812977
30
0
11
197.25695680018799
21
-125.76925802812977
31
0
0
LINE
5
252
100
AcDbEntity
8
0
100
AcDbLine
10
195.75695680018799
20
-101.76925802812977
30
0
11
195.75695680018799
21
-113.01925802812977
31
0
0
LWPOLYLINE
5
253
100
AcDbEntity
8
0
100
AcDbPolyline
90
4
70
1
43
0.0
10
195.00695680018799
20
-114.51925802812977
10
195.75695680018799
20
-114.51925802812977
10
195.75695680018799
20
-113.01925802812977
10
195.00695680018799
20
-113.01925802812977
0
ARC
5
254
100
AcDbEntity
8
0
100
AcDbCircle
10
208.25695680018796
20
-128.26925802812974
30
0
40
0.99999999999999645
210
-0
220
0
230
1
100
AcDbArc
50
-90
51
0
0
ARC
5
255
100
AcDbEntity
8
0
100
AcDbCircle
10
198.25695680018796
20
-128.26925802812974
30
0
40
0.99999999999999645
210
0
220
-0
230
1
100
AcDbArc
50
180
51
270
0
LINE
5
256
100
AcDbEntity
8
0
100
AcDbLine
10
209.25695680018799
20
-99.269258028129769
30
0
11
209.25695680018799
21
-101.76925802812977
31
0
0
LINE
5
257
100
AcDbEntity
8
0
100
AcDbLine
10
209.25695680018799
20
-125.76925802812977
30
0
11
209.25695680018799
21
-128.26925802812974
31
0
0
LINE
5
258
100
AcDbEntity
8
0
100
AcDbLine
10
195.75695680018799
20
-101.76925802812977
30
0
11
195.75695680018799
21
-113.01925802812977
31
0
0
LINE
5
259
100
AcDbEntity
8
0
100
AcDbLine
10
204.00695680018799
20
-98.269258028129784
30
0
11
208.25695680018796
21
-98.269258028129784
31
0
0
LINE
5
260
100
AcDbEntity
8
0
100
AcDbLine
10
210.75695680018799
20
-101.76925802812977
30
0
11
209.25695680018799
21
-101.76925802812977
31
0
0
ARC
5
261
100
AcDbEntity
8
0
100
AcDbCircle
10
208.25695680018796
20
-99.269258028129769
30
0
40
0.99999999999999645
210
0
220
0
230
1
100
AcDbArc
50
0
51
90
0
LINE
5
262
100
AcDbEntity
8
0
100
AcDbLine
10
197.25695680018799
20
-101.76925802812977
30
0
11
197.25695680018799
21
-99.269258028129769
31
0
0
LINE
5
263
100
AcDbEntity
8
0
100
AcDbLine
10
197.25695680018799
20
-101.76925802812977
30
0
11
195.75695680018799
21
-101.76925802812977
31
0
0
LINE
5
264
100
AcDbEntity
8
0
100
AcDbLine
10
218.22067108590227
20
-128.26925802812974
30
0
11
218.22067108590227
21
-125.76925802812977
31
0
0
LWPOLYLINE
5
265
100
AcDbEntity
8
0
100
AcDbPolyline
90
4
70
1
43
0.0
10
231.72067108590227
20
-114.51925802812978
10
231.72067108590227
20
-113.01925802812976
10
232.4706710859023
20
-113.01925802812976
10
232.4706710859023
20
-114.51925802812978
0
LINE
5
266
100
AcDbEntity
8
0
100
AcDbLine
10
216.72067108590227
20
-114.51925802812977
30
0
11
216.72067108590227
21
-125.76925802812977
31
0
0
LWPOLYLINE
5
267
100
AcDbEntity
8
0
100
AcDbPolyline
90
4
70
1
43
0.0
10
223.47067108590224
20
-98.269258028129784
10
223.47067108590224
20
-97.519258028129769
10
224.9706710859023
20
-97.519258028129769
10
224.97067108590227
20
-98.269258028129784
0
LINE
5
268
100
AcDbEntity
8
0
100
AcDbLine
10
231.72067108590227
20
-125.76925802812977
30
0
11
231.72067108590227
21
-114.51925802812978
31
0
0
ARC
5
269
100
AcDbEntity
8
0
100
AcDbCircle
10
219.22067108590227
20
-99.269258028129769
30
0
40
0.99999999999999645
210
0
220
-0
230
1
100
AcDbArc
50
90
51
180
0
LINE
5
270
100
AcDbEntity
8
0
100
AcDbLine
10
223.47067108590232
20
-129.26925802812971
30
0
11
219.22067108590227
21
-129.26925802812971
31
0
0
LWPOLYLINE
5
271
100
AcDbEntity
8
0
100
AcDbPolyline
90
4
70
1
43
0.0
10
224.9706710859023
20
-129.26925802812971
10
224.9706710859023
20
-130.01925802812974
10
223.47067108590232
20
-130.01925802812974
10
223.47067108590232
20
-129.26925802812971
0
LINE
5
272
100
AcDbEntity
8
0
100
AcDbLine
10
231.72067108590227
20
-113.01925802812976
30
0
11
231.72067108590227
21
-101.76925802812977
31
0
0
LINE
5
273
100
AcDbEntity
8
0
100
AcDbLine
10
219.22067108590227
20
-98.269258028129784
30
0
11
223.47067108590224
21
-98.269258028129784
31
0
0
LINE
5
274
100
AcDbEntity
8
0
100
AcDbLine
10
230.22067108590227
20
-125.76925802812977
30
0
11
231.72067108590227
21
-125.76925802812977
31
0
0
LINE
5
275
100
AcDbEntity
8
0
100
AcDbLine
10
229.22067108590227
20
-129.26925802812971
30
0
11
224.9706710859023
21
-129.26925802812971
31
0
0
LINE
5
276
100
AcDbEntity
8
0
100
AcDbLine
10
216.72067108590227
20
-125.76925802812977
30
0
11
218.22067108590227
21
-125.76925802812977
31
0
0
LINE
5
277
100
AcDbEntity
8
0
100
AcDbLine
10
216.72067108590227
20
-101.76925802812977
30
0
11
216.72067108590227
21
-113.01925802812977
31
0
0
LWPOLYLINE
5
278
100
AcDbEntity
8
0
100
AcDbPolyline
90
4
70
1
43
0.0
10
215.97067108590227
20
-114.51925802812977
10
216.72067108590227
20
-114.51925802812977
10
216.72067108590227
20
-113.01925802812977
10
215.97067108590227
20
-113.01925802812977
0
ARC
5
279
100
AcDbEntity
8
0
100
AcDbCircle
10
229.22067108590227
20
-128.26925802812974
30
0
40
0.99999999999999645
210
-0
220
0
230
1
100
AcDbArc
50
-90
51
0
0
ARC
5
280
100
AcDbEntity
8
0
100
AcDbCircle
10
219.22067108590227
20
-128.26925802812974
30
0
40
0.99999999999999645
210
0
220
-0
230
1
100
AcDbArc
50
180
51
270
0
LINE
5
281
100
AcDbEntity
8
0
100
AcDbLine
10
230.22067108590227
20
-99.269258028129769
30
0
11
230.22067108590227
21
-101.76925802812977
31
0
0
LINE
5
282
100
AcDbEntity
8
0
100
AcDbLine
10
230.22067108590227
20
-125.76925802812977
30
0
11
230.22067108590227
21
-128.26925802812974
31
0
0
LINE
5
283
100
AcDbEntity
8
0
100
AcDbLine
10
216.72067108590227
20
-101.76925802812977
30
0
11
216.72067108590227
21
-113.01925802812977
31
0
0
LINE
5
284
100
AcDbEntity
8
0
100
AcDbLine
10
224.9706710859023
20
-98.269258028129784
30
0
11
229.22067108590227
21
-98.269258028129784
31
0
0
LINE
5
285
100
AcDbEntity
8
0
100
AcDbLine
10
231.72067108590227
20
-101.76925802812977
30
0
11
230.22067108590227
21
-101.76925802812977
31
0
0
ARC
5
286
100
AcDbEntity
8
0
100
AcDbCircle
10
229.22067108590227
20
-99.269258028129769
30
0
40
0.99999999999999645
210
0
220
0
230
1
100
AcDbArc
50
0
51
90
0
LINE
5
287
100
AcDbEntity
8
0
100
AcDbLine
10
218.22067108590227
20
-101.76925802812977
30
0
11
218.22067108590227
21
-99.269258028129769
31
0
0
LINE
5
288
100
AcDbEntity
8
0
100
AcDbLine
10
218.22067108590227
20
-101.76925802812977
30
0
11
216.72067108590227
21
-101.76925802812977
31
0
0
LINE
5
289
100
AcDbEntity
8
0
100
AcDbLine
10
239.18438537161654
20
-128.26925802812974
30
0
11
239.18438537161654
21
-125.76925802812977
31
0
0
LWPOLYLINE
5
290
100
AcDbEntity
8
0
100
AcDbPolyline
90
4
70
1
43
0.0
10
252.68438537161657
20
-114.51925802812978
10
252.68438537161657
20
-113.01925802812976
10
253.43438537161657
20
-113.01925802812976
10
253.43438537161657
20
-114.51925802812978
0
LINE
5
291
100
AcDbEntity
8
0
100
AcDbLine
10
237.68438537161657
20
-114.51925802812977
30
0
11
237.68438537161657
21
-125.76925802812977
31
0
0
LWPOLYLINE
5
292
100
AcDbEntity
8
0
100
AcDbPolyline
90
4
70
1
43
0.0
10
244.43438537161654
20
-98.269258028129784
10
244.43438537161654
20
-97.519258028129769
10
245.93438537161657
20
-97.519258028129769
10
245.93438537161657
20
-98.269258028129784
0
LINE
5
293
100
AcDbEntity
8
0
100
AcDbLine
10
252.68438537161657
20
-125.76925802812977
30
0
11
252.68438537161657
21
-114.51925802812978
31
0
0
ARC
5
294
100
AcDbEntity
8
0
100
AcDbCircle
10
240.18438537161657
20
-99.269258028129769
30
0
40
0.99999999999999645
210
0
220
-0
230
1
100
AcDbArc
50
90
51
180
0
LINE
5
295
100
AcDbEntity
8
0
100
AcDbLine
10
244.43438537161657
20
-129.26925802812971
30
0
11
240.18438537161657
21
-129.26925802812971
31
0
0
LWPOLYLINE
5
296
100
AcDbEntity
8
0
100
AcDbPolyline
90
4
70
1
43
0.0
10
245.93438537161657
20
-129.26925802812971
10
245.93438537161657
20
-130.01925802812974
10
244.43438537161657
20
-130.01925802812974
10
244.43438537161657
20
-129.26925802812971
0
LINE
5
297
100
AcDbEntity
8
0
100
AcDbLine
10
252.68438537161657
20
-113.01925802812976
30
0
11
252.68438537161657
21
-101.76925802812977
31
0
0
LINE
5
298
100
AcDbEntity
8
0
100
AcDbLine
10
240.18438537161657
20
-98.269258028129784
30
0
11
244.43438537161654
21
-98.269258028129784
31
0
0
LINE
5
299
100
AcDbEntity
8
0
100
AcDbLine
10
251.18438537161654
20
-125.76925802812977
30
0
11
252.68438537161657
21
-125.76925802812977
31
0
0
LINE
5
300
100
AcDbEntity
8
0
100
AcDbLine
10
250.18438537161657
20
-129.26925802812971
30
0
11
245.93438537161657
21
-129.26925802812971
31
0
0
LINE
5
301
100
AcDbEntity
8
0
100
AcDbLine
10
237.68438537161657
20
-125.76925802812977
30
0
11
239.18438537161654
21
-125.76925802812977
31
0
0
LINE
5
302
100
AcDbEntity
8
0
100
AcDbLine
10
237.68438537161657
20
-101.76925802812977
30
0
11
237.68438537161657
21
-113.01925802812977
31
0
0
LWPOLYLINE
5
303
100
AcDbEntity
8
0
100
AcDbPolyline
90
4
70
1
43
0.0
10
236.93438537161654
20
-114.51925802812977
10
237.68438537161657
20
-114.51925802812977
10
237.68438537161657
20
-113.01925802812977
10
236.93438537161654
20
-113.01925802812977
0
ARC
5
304
100
AcDbEntity
8
0
100
AcDbCircle
10
250.18438537161657
20
-128.26925802812974
30
0
40
0.99999999999999645
210
-0
220
0
230
1
100
AcDbArc
50
-90
51
0
0
ARC
5
305
100
AcDbEntity
8
0
100
AcDbCircle
10
240.18438537161657
20
-128.26925802812974
30
0
40
0.99999999999999645
210
0
220
-0
230
1
100
AcDbArc
50
180
51
270
0
LINE
5
306
100
AcDbEntity
8
0
100
AcDbLine
10
251.18438537161654
20
-99.269258028129769
30
0
11
251.18438537161654
21
-101.76925802812977
31
0
0
LINE
5
307
100
AcDbEntity
8
0
100
AcDbLine
10
251.18438537161654
20
-125.76925802812977
30
0
11
251.18438537161654
21
-128.26925802812974
31
0
0
LINE
5
308
100
AcDbEntity
8
0
100
AcDbLine
10
237.68438537161657
20
-101.76925802812977
30
0
11
237.68438537161657
21
-113.01925802812977
31
0
0
LINE
5
309
100
AcDbEntity
8
0
100
AcDbLine
10
245.93438537161657
20
-98.269258028129784
30
0
11
250.18438537161657
21
-98.269258028129784
31
0
0
LINE
5
310
100
AcDbEntity
8
0
100
AcDbLine
10
252.68438537161657
20
-101.76925802812977
30
0
11
251.18438537161654
21
-101.76925802812977
31
0
0
ARC
5
311
100
AcDbEntity
8
0
100
AcDbCircle
10
250.18438537161657
20
-99.269258028129769
30
0
40
0.99999999999999645
210
0
220
0
230
1
100
AcDbArc
50
0
51
90
0
LINE
5
312
100
AcDbEntity
8
0
100
AcDbLine
10
239.18438537161654
20
-101.76925802812977
30
0
11
239.18438537161654
21
-99.269258028129769
31
0
0
LINE
5
313
100
AcDbEntity
8
0
100
AcDbLine
10
239.18438537161654
20
-101.76925802812977
30
0
11
237.68438537161657
21
-101.76925802812977
31
0
0
LINE
5
314
100
AcDbEntity
8
0
100
AcDbLine
10
260.14809965733087
20
-128.26925802812974
30
0
11
260.14809965733087
21
-125.76925802812977
31
0
0
LWPOLYLINE
5
315
100
AcDbEntity
8
0
100
AcDbPolyline
90
4
70
1
43
0.0
10
273.64809965733087
20
-114.51925802812978
10
273.64809965733087
20
-113.01925802812976
10
274.39809965733087
20
-113.01925802812976
10
274.39809965733087
20
-114.51925802812978
0
LINE
5
316
100
AcDbEntity
8
0
100
AcDbLine
10
258.64809965733087
20
-114.51925802812977
30
0
11
258.64809965733087
21
-125.76925802812977
31
0
0
LWPOLYLINE
5
317
100
AcDbEntity
8
0
100
AcDbPolyline
90
4
70
1
43
0.0
10
265.39809965733082
20
-98.269258028129784
10
265.39809965733082
20
-97.519258028129769
10
266.89809965733087
20
-97.519258028129769
10
266.89809965733087
20
-98.269258028129784
0
LINE
5
318
100
AcDbEntity
8
0
100
AcDbLine
10
273.64809965733087
20
-125.76925802812977
30
0
11
273.64809965733087
21
-114.51925802812978
31
0
0
ARC
5
319
100
AcDbEntity
8
0
100
AcDbCircle
10
261.14809965733087
20
-99.269258028129769
30
0
40
0.99999999999999645
210
0
220
-0
230
1
100
AcDbArc
50
90
51
180
0
LINE
5
320
100
AcDbEntity
8
0
100
AcDbLine
10
265.39809965733087
20
-129.26925802812971
30
0
11
261.14809965733087
21
-129.26925802812971
31
0
0
LWPOLYLINE
5
321
100
AcDbEntity
8
0
100
AcDbPolyline
90
4
70
1
43
0.0
10
266.89809965733087
20
-129.26925802812971
10
266.89809965733087
20
-130.01925802812974
10
265.39809965733087
20
-130.01925802812974
10
265.39809965733087
20
-129.26925802812971
0
LINE
5
322
100
AcDbEntity
8
0
100
AcDbLine
10
273.64809965733087
20
-113.01925802812976
30
0
11
273.64809965733087
21
-101.76925802812977
31
0
0
LINE
5
323
100
AcDbEntity
8
0
100
AcDbLine
10
261.14809965733087
20
-98.269258028129784
30
0
11
265.39809965733082
21
-98.269258028129784
31
0
0
LINE
5
324
100
AcDbEntity
8
0
100
AcDbLine
10
272.14809965733087
20
-125.76925802812977
30
0
11
273.64809965733087
21
-125.76925802812977
31
0
0
LINE
5
325
100
AcDbEntity
8
0
100
AcDbLine
10
271.14809965733087
20
-129.26925802812971
30
0
11
266.89809965733087
21
-129.26925802812971
31
0
0
LINE
5
326
100
AcDbEntity
8
0
100
AcDbLine
10
258.64809965733087
20
-125.76925802812977
30
0
11
260.14809965733087
21
-125.76925802812977
31
0
0
LINE
5
327
100
AcDbEntity
8
0
100
AcDbLine
10
258.64809965733087
20
-101.76925802812977
30
0
11
258.64809965733087
21
-113.01925802812977
31
0
0
LWPOLYLINE
5
328
100
AcDbEntity
8
0
100
AcDbPolyline
90
4
70
1
43
0.0
10
257.89809965733082
20
-114.51925802812977
10
258.64809965733087
20
-114.51925802812977
10
258.64809965733087
20
-113.01925802812977
10
257.89809965733082
20
-113.01925802812977
0
ARC
5
329
100
AcDbEntity
8
0
100
AcDbCircle
10
271.14809965733087
20
-128.26925802812974
30
0
40
0.99999999999999645
210
-0
220
0
230
1
100
AcDbArc
50
-90
51
0
0
ARC
5
330
100
AcDbEntity
8
0
100
AcDbCircle
10
261.14809965733087
20
-128.26925802812974
30
0
40
0.99999999999999645
210
0
220
-0
230
1
100
AcDbArc
50
180
51
270
0
LINE
5
331
100
AcDbEntity
8
0
100
AcDbLine
10
272.14809965733087
20
-99.269258028129769
30
0
11
272.14809965733087
21
-101.76925802812977
31
0
0
LINE
5
332
100
AcDbEntity
8
0
100
AcDbLine
10
272.14809965733087
20
-125.76925802812977
30
0
11
272.14809965733087
21
-128.26925802812974
31
0
0
LINE
5
333
100
AcDbEntity
8
0
100
AcDbLine
10
258.64809965733087
20
-101.76925802812977
30
0
11
258.64809965733087
21
-113.01925802812977
31
0
0
LINE
5
334
100
AcDbEntity
8
0
100
AcDbLine
10
266.89809965733087
20
-98.269258028129784
30
0
11
271.14809965733087
21
-98.269258028129784
31
0
0
LINE
5
335
100
AcDbEntity
8
0
100
AcDbLine
10
273.64809965733087
20
-101.76925802812977
30
0
11
272.14809965733087
21
-101.76925802812977
31
0
0
ARC
5
336
100
AcDbEntity
8
0
100
AcDbCircle
10
271.14809965733087
20
-99.269258028129769
30
0
40
0.99999999999999645
210
0
220
0
230
1
100
AcDbArc
50
0
51
90
0
LINE
5
337
100
AcDbEntity
8
0
100
AcDbLine
10
260.14809965733087
20
-101.76925802812977
30
0
11
260.14809965733087
21
-99.269258028129769
31
0
0
LINE
5
338
100
AcDbEntity
8
0
100
AcDbLine
10
260.14809965733087
20
-101.76925802812977
30
0
11
258.64809965733087
21
-101.76925802812977
31
0
0
LINE
5
339
100
AcDbEntity
8
0
100
AcDbLine
10
281.11181394304515
20
-128.26925802812974
30
0
11
281.11181394304515
21
-125.76925802812977
31
0
0
LWPOLYLINE
5
340
100
AcDbEntity
8
0
100
AcDbPolyline
90
4
70
1
43
0.0
10
294.61181394304515
20
-114.51925802812978
10
294.61181394304515
20
-113.01925802812976
10
295.36181394304515
20
-113.01925802812976
10
295.36181394304515
20
-114.51925802812978
0
LINE
5
341
100
AcDbEntity
8
0
100
AcDbLine
10
279.61181394304515
20
-114.51925802812977
30
0
11
279.61181394304515
21
-125.76925802812977
31
0
0
LWPOLYLINE
5
342
100
AcDbEntity
8
0
100
AcDbPolyline
90
4
70
1
43
0.0
10
286.36181394304515
20
-98.269258028129784
10
286.36181394304515
20
-97.519258028129769
10
287.86181394304515
20
-97.519258028129769
10
287.86181394304515
20
-98.269258028129784
0
LINE
5
343
100
AcDbEntity
8
0
100
AcDbLine
10
294.61181394304515
20
-125.76925802812977
30
0
11
294.61181394304515
21
-114.51925802812978
31
0
0
ARC
5
344
100
AcDbEntity
8
0
100
AcDbCircle
10
282.11181394304515
20
-99.269258028129769
30
0
40
0.99999999999999645
210
0
220
-0
230
1
100
AcDbArc
50
90
51
180
0
LINE
5
345
100
AcDbEntity
8
0
100
AcDbLine
10
286.36181394304515
20
-129.26925802812971
30
0
11
282.11181394304515
21
-129.26925802812971
31
0
0
LWPOLYLINE
5
346
100
AcDbEntity
8
0
100
AcDbPolyline
90
4
70
1
43
0.0
10
287.86181394304515
20
-129.26925802812971
10
287.86181394304515
20
-130.01925802812974
10
286.36181394304515
20
-130.01925802812974
10
286.36181394304515
20
-129.26925802812971
0
LINE
5
347
100
AcDbEntity
8
0
100
AcDbLine
10
294.61181394304515
20
-113.01925802812976
30
0
11
294.61181394304515
21
-101.76925802812977
31
0
0
LINE
5
348
100
AcDbEntity
8
0
100
AcDbLine
10
282.11181394304515
20
-98.269258028129784
30
0
11
286.36181394304515
21
-98.269258028129784
31
0
0
LINE
5
349
100
AcDbEntity
8
0
100
AcDbLine
10
293.11181394304515
20
-125.76925802812977
30
0
11
294.61181394304515
21
-125.76925802812977
31
0
0
LINE
5
350
100
AcDbEntity
8
0
100
AcDbLine
10
292.11181394304515
20
-129.26925802812971
30
0
11
287.86181394304515
21
-129.26925802812971
31
0
0
LINE
5
351
100
AcDbEntity
8
0
100
AcDbLine
10
279.61181394304515
20
-125.76925802812977
30
0
11
281.11181394304515
21
-125.76925802812977
31
0
0
LINE
5
352
100
AcDbEntity
8
0
100
AcDbLine
10
279.61181394304515
20
-101.76925802812977
30
0
11
279.61181394304515
21
-113.01925802812977
31
0
0
LWPOLYLINE
5
353
100
AcDbEntity
8
0
100
AcDbPolyline
90
4
70
1
43
0.0
10
278.86181394304515
20
-114.51925802812977
10
279.61181394304515
20
-114.51925802812977
10
279.61181394304515
20
-113.01925802812977
10
278.86181394304515
20
-113.01925802812977
0
ARC
5
354
100
AcDbEntity
8
0
100
AcDbCircle
10
292.11181394304515
20
-128.26925802812974
30
0
40
0.99999999999999645
210
-0
220
0
230
1
100
AcDbArc
50
-90
51
0
0
ARC
5
355
100
AcDbEntity
8
0
100
AcDbCircle
10
282.11181394304515
20
-128.26925802812974
30
0
40
0.99999999999999645
210
0
220
-0
230
1
100
AcDbArc
50
180
51
270
0
LINE
5
356
100
AcDbEntity
8
0
100
AcDbLine
10
293.11181394304515
20
-99.269258028129769
30
0
11
293.11181394304515
21
-101.76925802812977
31
0
0
LINE
5
357
100
AcDbEntity
8
0
100
AcDbLine
10
293.11181394304515
20
-125.76925802812977
30
0
11
293.11181394304515
21
-128.26925802812974
31
0
0
LINE
5
358
100
AcDbEntity
8
0
100
AcDbLine
10
279.61181394304515
20
-101.76925802812977
30
0
11
279.61181394304515
21
-113.01925802812977
31
0
0
LINE
5
359
100
AcDbEntity
8
0
100
AcDbLine
10
287.86181394304515
20
-98.269258028129784
30
0
11
292.11181394304515
21
-98.269258028129784
31
0
0
LINE
5
360
100
AcDbEntity
8
0
100
AcDbLine
10
294.61181394304515
20
-101.76925802812977
30
0
11
293.11181394304515
21
-101.76925802812977
31
0
0
ARC
5
361
100
AcDbEntity
8
0
100
AcDbCircle
10
292.11181394304515
20
-99.269258028129769
30
0
40
0.99999999999999645
210
0
220
0
230
1
100
AcDbArc
50
0
51
90
0
LINE
5
362
100
AcDbEntity
8
0
100
AcDbLine
10
281.11181394304515
20
-101.76925802812977
30
0
11
281.11181394304515
21
-99.269258028129769
31
0
0
LINE
5
363
100
AcDbEntity
8
0
100
AcDbLine
10
281.11181394304515
20
-101.76925802812977
30
0
11
279.61181394304515
21
-101.76925802812977
31
0
0
LINE
5
364
100
AcDbEntity
8
0
100
AcDbLine
10
134.36581394304511
20
-165.20325802812974
30
0
11
134.36581394304511
21
-162.70325802812977
31
0
0
LWPOLYLINE
5
365
100
AcDbEntity
8
0
100
AcDbPolyline
90
4
70
1
43
0.0
10
147.86581394304511
20
-151.4532580281298
10
147.86581394304511
20
-149.95325802812977
10
148.61581394304511
20
-149.95325802812977
10
148.61581394304511
20
-151.4532580281298
0
LINE
5
366
100
AcDbEntity
8
0
100
AcDbLine
10
132.86581394304511
20
-151.45325802812977
30
0
11
132.86581394304511
21
-162.70325802812977
31
0
0
LWPOLYLINE
5
367
100
AcDbEntity
8
0
100
AcDbPolyline
90
4
70
1
43
0.0
10
139.61581394304511
20
-135.2032580281298
10
139.61581394304511
20
-134.45325802812977
10
141.11581394304511
20
-134.45325802812977
10
141.11581394304511
20
-135.2032580281298
0
LINE
5
368
100
AcDbEntity
8
0
100
AcDbLine
10
147.86581394304511
20
-162.70325802812977
30
0
11
147.86581394304511
21
-151.4532580281298
31
0
0
ARC
5
369
100
AcDbEntity
8
0
100
AcDbCircle
10
135.36581394304511
20
-136.20325802812977
30
0
40
0.99999999999999645
210
0
220
-0
230
1
100
AcDbArc
50
90
51
180
0
LINE
5
370
100
AcDbEntity
8
0
100
AcDbLine
10
139.61581394304514
20
-166.20325802812971
30
0
11
135.36581394304511
21
-166.20325802812971
31
0
0
LWPOLYLINE
5
371
100
AcDbEntity
8
0
100
AcDbPolyline
90
4
70
1
43
0.0
10
141.11581394304511
20
-166.20325802812971
10
141.11581394304511
20
-166.95325802812974
10
139.61581394304514
20
-166.95325802812974
10
139.61581394304514
20
-166.20325802812971
0
LINE
5
372
100
AcDbEntity
8
0
100
AcDbLine
10
147.86581394304511
20
-149.95325802812977
30
0
11
147.86581394304511
21
-138.70325802812977
31
0
0
LINE
5
373
100
AcDbEntity
8
0
100
AcDbLine
10
135.36581394304511
20
-135.2032580281298
30
0
11
139.61581394304511
21
-135.2032580281298
31
0
0
LINE
5
374
100
AcDbEntity
8
0
100
AcDbLine
10
146.36581394304511
20
-162.70325802812977
30
0
11
147.86581394304511
21
-162.70325802812977
31
0
0
LINE
5
375
100
AcDbEntity
8
0
100
AcDbLine
10
145.36581394304511
20
-166.20325802812971
30
0
11
141.11581394304511
21
-166.20325802812971
31
0
0
LINE
5
376
100
AcDbEntity
8
0
100
AcDbLine
10
132.86581394304511
20
-162.70325802812977
30
0
11
134.36581394304511
21
-162.70325802812977
31
0
0
LINE
5
377
100
AcDbEntity
8
0
100
AcDbLine
10
132.86581394304511
20
-138.70325802812977
30
0
11
132.86581394304511
21
-149.95325802812977
31
0
0
LWPOLYLINE
5
378
100
AcDbEntity
8
0
100
AcDbPolyline
90
4
70
1
43
0.0
10
132.11581394304511
20
-151.45325802812977
10
132.86581394304511
20
-151.45325802812977
10
132.86581394304511
20
-149.95325802812977
10
132.11581394304511
20
-149.95325802812977
0
ARC
5
379
100
AcDbEntity
8
0
100
AcDbCircle
10
145.36581394304511
20
-165.20325802812974
30
0
40
0.99999999999999645
210
-0
220
0
230
1
100
AcDbArc
50
-90
51
0
0
ARC
5
380
100
AcDbEntity
8
0
100
AcDbCircle
10
135.36581394304511
20
-165.20325802812974
30
0
40
0.99999999999999645
210
0
220
-0
230
1
100
AcDbArc
50
180
51
270
0
LINE
5
381
100
AcDbEntity
8
0
100
AcDbLine
10
146.36581394304511
20
-136.20325802812977
30
0
11
146.36581394304511
21
-138.70325802812977
31
0
0
LINE
5
382
100
AcDbEntity
8
0
100
AcDbLine
10
146.36581394304511
20
-162.70325802812977
30
0
11
146.36581394304511
21
-165.20325802812974
31
0
0
LINE
5
383
100
AcDbEntity
8
0
100
AcDbLine
10
132.86581394304511
20
-138.70325802812977
30
0
11
132.86581394304511
21
-149.95325802812977
31
0
0
LINE
5
384
100
AcDbEntity
8
0
100
AcDbLine
10
141.11581394304511
20
-135.2032580281298
30
0
11
145.36581394304511
21
-135.2032580281298
31
0
0
LINE
5
385
100
AcDbEntity
8
0
100
AcDbLine
10
147.86581394304511
20
-138.70325802812977
30
0
11
146.36581394304511
21
-138.70325802812977
31
0
0
ARC
5
386
100
AcDbEntity
8
0
100
AcDbCircle
10
145.36581394304511
20
-136.20325802812977
30
0
40
0.99999999999999645
210
0
220
0
230
1
100
AcDbArc
50
0
51
90
0
LINE
5
387
100
AcDbEntity
8
0
100
AcDbLine
10
134.36581394304511
20
-138.70325802812977
30
0
11
134.36581394304511
21
-136.20325802812977
31
0
0
LINE
5
388
100
AcDbEntity
8
0
100
AcDbLine
10
134.36581394304511
20
-138.70325802812977
30
0
11
132.86581394304511
21
-138.70325802812977
31
0
0
LINE
5
389
100
AcDbEntity
8
0
100
AcDbLine
10
155.32952822875939
20
-165.20325802812974
30
0
11
155.32952822875939
21
-162.70325802812977
31
0
0
LWPOLYLINE
5
390
100
AcDbEntity
8
0
100
AcDbPolyline
90
4
70
1
43
0.0
10
168.82952822875944
20
-151.4532580281298
10
168.82952822875944
20
-149.95325802812977
10
169.57952822875941
20
-149.95325802812977
10
169.57952822875941
20
-151.4532580281298
0
LINE
5
391
100
AcDbEntity
8
0
100
AcDbLine
10
153.82952822875941
20
-151.45325802812977
30
0
11
153.82952822875941
21
-162.70325802812977
31
0
0
LWPOLYLINE
5
392
100
AcDbEntity
8
0
100
AcDbPolyline
90
4
70
1
43
0.0
10
160.57952822875939
20
-135.2032580281298
10
160.57952822875939
20
-134.45325802812977
10
162.07952822875941
20
-134.45325802812977
10
162.07952822875941
20
-135.2032580281298
0
LINE
5
393
100
AcDbEntity
8
0
100
AcDbLine
10
168.82952822875944
20
-162.70325802812977
30
0
11
168.82952822875944
21
-151.4532580281298
31
0
0
ARC
5
394
100
AcDbEntity
8
0
100
AcDbCircle
10
156.32952822875939
20
-136.20325802812977
30
0
40
0.99999999999999645
210
0
220
-0
230
1
100
AcDbArc
50
90
51
180
0
LINE
5
395
100
AcDbEntity
8
0
100
AcDbLine
10
160.57952822875944
20
-166.20325802812971
30
0
11
156.32952822875939
21
-166.20325802812971
31
0
0
LWPOLYLINE
5
396
100
AcDbEntity
8
0
100
AcDbPolyline
90
4
70
1
43
0.0
10
162.07952822875941
20
-166.20325802812971
10
162.07952822875941
20
-166.95325802812974
10
160.57952822875944
20
-166.95325802812974
10
160.57952822875944
20
-166.20325802812971
0
LINE
5
397
100
AcDbEntity
8
0
100
AcDbLine
10
168.82952822875944
20
-149.95325802812977
30
0
11
168.82952822875944
21
-138.70325802812977
31
0
0
LINE
5
398
100
AcDbEntity
8
0
100
AcDbLine
10
156.32952822875939
20
-135.2032580281298
30
0
11
160.57952822875939
21
-135.2032580281298
31
0
0
LINE
5
399
100
AcDbEntity
8
0
100
AcDbLine
10
167.32952822875941
20
-162.70325802812977
30
0
11
168.82952822875944
21
-162.70325802812977
31
0
0
LINE
5
400
100
AcDbEntity
8
0
100
AcDbLine
10
166.32952822875939
20
-166.20325802812971
30
0
11
162.07952822875941
21
-166.20325802812971
31
0
0
LINE
5
401
100
AcDbEntity
8
0
100
AcDbLine
10
153.82952822875941
20
-162.70325802812977
30
0
11
155.32952822875939
21
-162.70325802812977
31
0
0
LINE
5
402
100
AcDbEntity
8
0
100
AcDbLine
10
153.82952822875941
20
-138.70325802812977
30
0
11
153.82952822875941
21
-149.95325802812977
31
0
0
LWPOLYLINE
5
403
100
AcDbEntity
8
0
100
AcDbPolyline
90
4
70
1
43
0.0
10
153.07952822875939
20
-151.45325802812977
10
153.82952822875941
20
-151.45325802812977
10
153.82952822875941
20
-149.95325802812977
10
153.07952822875939
20
-149.95325802812977
0
ARC
5
404
100
AcDbEntity
8
0
100
AcDbCircle
10
166.32952822875939
20
-165.20325802812974
30
0
40
0.99999999999999645
210
-0
220
0
230
1
100
AcDbArc
50
-90
51
0
0
ARC
5
405
100
AcDbEntity
8
0
100
AcDbCircle
10
156.32952822875939
20
-165.20325802812974
30
0
40
0.99999999999999645
210
0
220
-0
230
1
100
AcDbArc
50
180
51
270
0
LINE
5
406
100
AcDbEntity
8
0
100
AcDbLine
10
167.32952822875941
20
-136.20325802812977
30
0
11
167.32952822875941
21
-138.70325802812977
31
0
0
LINE
5
407
100
AcDbEntity
8
0
100
AcDbLine
10
167.32952822875941
20
-162.70325802812977
30
0
11
167.32952822875941
21
-165.20325802812974
31
0
0
LINE
5
408
100
AcDbEntity
8
0
100
AcDbLine
10
153.82952822875941
20
-138.70325802812977
30
0
11
153.82952822875941
21
-149.95325802812977
31
0
0
LINE
5
409
100
AcDbEntity
8
0
100
AcDbLine
10
162.07952822875941
20
-135.2032580281298
30
0
11
166.32952822875939
21
-135.2032580281298
31
0
0
LINE
5
410
100
AcDbEntity
8
0
100
AcDbLine
10
168.82952822875944
20
-138.70325802812977
30
0
11
167.32952822875941
21
-138.70325802812977
31
0
0
ARC
5
411
100
AcDbEntity
8
0
100
AcDbCircle
10
166.32952822875939
20
-136.20325802812977
30
0
40
0.99999999999999645
210
0
220
0
230
1
100
AcDbArc
50
0
51
90
0
LINE
5
412
100
AcDbEntity
8
0
100
AcDbLine
10
155.32952822875939
20
-138.70325802812977
30
0
11
155.32952822875939
21
-136.20325802812977
31
0
0
LINE
5
413
100
AcDbEntity
8
0
100
AcDbLine
10
155.32952822875939
20
-138.70325802812977
30
0
11
153.82952822875941
21
-138.70325802812977
31
0
0
LINE
5
414
100
AcDbEntity
8
0
100
AcDbLine
10
176.29324251447369
20
-165.20325802812974
30
0
11
176.29324251447369
21
-162.70325802812977
31
0
0
LWPOLYLINE
5
415
100
AcDbEntity
8
0
100
AcDbPolyline
90
4
70
1
43
0.0
10
189.79324251447369
20
-151.4532580281298
10
189.79324251447369
20
-149.95325802812977
10
190.54324251447369
20
-149.95325802812977
10
190.54324251447369
20
-151.4532580281298
0
LINE
5
416
100
AcDbEntity
8
0
100
AcDbLine
10
174.79324251447369
20
-151.45325802812977
30
0
11
174.79324251447369
21
-162.70325802812977
31
0
0
LWPOLYLINE
5
417
100
AcDbEntity
8
0
100
AcDbPolyline
90
4
70
1
43
0.0
10
181.54324251447366
20
-135.2032580281298
10
181.54324251447366
20
-134.45325802812977
10
183.04324251447369
20
-134.45325802812977
10
183.04324251447369
20
-135.2032580281298
0
LINE
5
418
100
AcDbEntity
8
0
100
AcDbLine
10
189.79324251447369
20
-162.70325802812977
30
0
11
189.79324251447369
21
-151.4532580281298
31
0
0
ARC
5
419
100
AcDbEntity
8
0
100
AcDbCircle
10
177.29324251447369
20
-136.20325802812977
30
0
40
0.99999999999999645
210
0
220
-0
230
1
100
AcDbArc
50
90
51
180
0
LINE
5
420
100
AcDbEntity
8
0
100
AcDbLine
10
181.54324251447372
20
-166.20325802812971
30
0
11
177.29324251447369
21
-166.20325802812971
31
0
0
LWPOLYLINE
5
421
100
AcDbEntity
8
0
100
AcDbPolyline
90
4
70
1
43
0.0
10
183.04324251447369
20
-166.20325802812971
10
183.04324251447369
20
-166.95325802812974
10
181.54324251447372
20
-166.95325802812974
10
181.54324251447372
20
-166.20325802812971
0
LINE
5
422
100
AcDbEntity
8
0
100
AcDbLine
10
189.79324251447369
20
-149.95325802812977
30
0
11
189.79324251447369
21
-138.70325802812977
31
0
0
LINE
5
423
100
AcDbEntity
8
0
100
AcDbLine
10
177.29324251447369
20
-135.2032580281298
30
0
11
181.54324251447366
21
-135.2032580281298
31
0
0
LINE
5
424
100
AcDbEntity
8
0
100
AcDbLine
10
188.29324251447366
20
-162.70325802812977
30
0
11
189.79324251447369
21
-162.70325802812977
31
0
0
LINE
5
425
100
AcDbEntity
8
0
100
AcDbLine
10
187.29324251447369
20
-166.20325802812971
30
0
11
183.04324251447369
21
-166.20325802812971
31
0
0
LINE
5
426
100
AcDbEntity
8
0
100
AcDbLine
10
174.79324251447369
20
-162.70325802812977
30
0
11
176.29324251447369
21
-162.70325802812977
31
0
0
LINE
5
427
100
AcDbEntity
8
0
100
AcDbLine
10
174.79324251447369
20
-138.70325802812977
30
0
11
174.79324251447369
21
-149.95325802812977
31
0
0
LWPOLYLINE
5
428
100
AcDbEntity
8
0
100
AcDbPolyline
90
4
70
1
43
0.0
10
174.04324251447372
20
-151.45325802812977
10
174.79324251447369
20
-151.45325802812977
10
174.79324251447369
20
-149.95325802812977
10
174.04324251447372
20
-149.95325802812977
0
ARC
5
429
100
AcDbEntity
8
0
100
AcDbCircle
10
187.29324251447369
20
-165.20325802812974
30
0
40
0.99999999999999645
210
-0
220
0
230
1
100
AcDbArc
50
-90
51
0
0
ARC
5
430
100
AcDbEntity
8
0
100
AcDbCircle
10
177.29324251447369
20
-165.20325802812974
30
0
40
0.99999999999999645
210
0
220
-0
230
1
100
AcDbArc
50
180
51
270
0
LINE
5
431
100
AcDbEntity
8
0
100
AcDbLine
10
188.29324251447366
20
-136.20325802812977
30
0
11
188.29324251447366
21
-138.70325802812977
31
0
0
LINE
5
432
100
AcDbEntity
8
0
100
AcDbLine
10
188.29324251447366
20
-162.70325802812977
30
0
11
188.29324251447366
21
-165.20325802812974
31
0
0
LINE
5
433
100
AcDbEntity
8
0
100
AcDbLine
10
174.79324251447369
20
-138.70325802812977
30
0
11
174.79324251447369
21
-149.95325802812977
31
0
0
LINE
5
434
100
AcDbEntity
8
0
100
AcDbLine
10
183.04324251447369
20
-135.2032580281298
30
0
11
187.29324251447369
21
-135.2032580281298
31
0
0
LINE
5
435
100
AcDbEntity
8
0
100
AcDbLine
10
189.79324251447369
20
-138.70325802812977
30
0
11
188.29324251447366
21
-138.70325802812977
31
0
0
ARC
5
436
100
AcDbEntity
8
0
100
AcDbCircle
10
187.29324251447369
20
-136.20325802812977
30
0
40
0.99999999999999645
210
0
220
0
230
1
100
AcDbArc
50
0
51
90
0
LINE
5
437
100
AcDbEntity
8
0
100
AcDbLine
10
176.29324251447369
20
-138.70325802812977
30
0
11
176.29324251447369
21
-136.20325802812977
31
0
0
LINE
5
438
100
AcDbEntity
8
0
100
AcDbLine
10
176.29324251447369
20
-138.70325802812977
30
0
11
174.79324251447369
21
-138.70325802812977
31
0
0
LINE
5
439
100
AcDbEntity
8
0
100
AcDbLine
10
197.25695680018799
20
-165.20325802812974
30
0
11
197.25695680018799
21
-162.70325802812977
31
0
0
LWPOLYLINE
5
440
100
AcDbEntity
8
0
100
AcDbPolyline
90
4
70
1
43
0.0
10
210.75695680018799
20
-151.4532580281298
10
210.75695680018799
20
-149.95325802812977
10
211.50695680018799
20
-149.95325802812977
10
211.50695680018799
20
-151.4532580281298
0
LINE
5
441
100
AcDbEntity
8
0
100
AcDbLine
10
195.75695680018799
20
-151.45325802812977
30
0
11
195.75695680018799
21
-162.70325802812977
31
0
0
LWPOLYLINE
5
442
100
AcDbEntity
8
0
100
AcDbPolyline
90
4
70
1
43
0.0
10
202.50695680018796
20
-135.2032580281298
10
202.50695680018796
20
-134.45325802812977
10
204.00695680018799
20
-134.45325802812977
10
204.00695680018799
20
-135.2032580281298
0
LINE
5
443
100
AcDbEntity
8
0
100
AcDbLine
10
210.75695680018799
20
-162.70325802812977
30
0
11
210.75695680018799
21
-151.4532580281298
31
0
0
ARC
5
444
100
AcDbEntity
8
0
100
AcDbCircle
10
198.25695680018796
20
-136.20325802812977
30
0
40
0.99999999999999645
210
0
220
-0
230
1
100
AcDbArc
50
90
51
180
0
LINE
5
445
100
AcDbEntity
8
0
100
AcDbLine
10
202.50695680018799
20
-166.20325802812971
30
0
11
198.25695680018796
21
-166.20325802812971
31
0
0
LWPOLYLINE
5
446
100
AcDbEntity
8
0
100
AcDbPolyline
90
4
70
1
43
0.0
10
204.00695680018799
20
-166.20325802812971
10
204.00695680018799
20
-166.95325802812974
10
202.50695680018799
20
-166.95325802812974
10
202.50695680018799
20
-166.20325802812971
0
LINE
5
447
100
AcDbEntity
8
0
100
AcDbLine
10
210.75695680018799
20
-149.95325802812977
30
0
11
210.75695680018799
21
-138.70325802812977
31
0
0
LINE
5
448
100
AcDbEntity
8
0
100
AcDbLine
10
198.25695680018796
20
-135.2032580281298
30
0
11
202.50695680018796
21
-135.2032580281298
31
0
0
LINE
5
449
100
AcDbEntity
8
0
100
AcDbLine
10
209.25695680018799
20
-162.70325802812977
30
0
11
210.75695680018799
21
-162.70325802812977
31
0
0
LINE
5
450
100
AcDbEntity
8
0
100
AcDbLine
10
208.25695680018796
20
-166.20325802812971
30
0
11
204.00695680018799
21
-166.20325802812971
31
0
0
LINE
5
451
100
AcDbEntity
8
0
100
AcDbLine
10
195.75695680018799
20
-162.70325802812977
30
0
11
197.25695680018799
21
-162.70325802812977
31
0
0
LINE
5
452
100
AcDbEntity
8
0
100
AcDbLine
10
195.75695680018799
20
-138.70325802812977
30
0
11
195.75695680018799
21
-149.95325802812977
31
0
0
LWPOLYLINE
5
453
100
AcDbEntity
8
0
100
AcDbPolyline
90
4
70
1
43
0.0
10
195.00695680018799
20
-151.45325802812977
10
195.75695680018799
20
-151.45325802812977
10
195.75695680018799
20
-149.95325802812977
10
195.00695680018799
20
-149.95325802812977
0
ARC
5
454
100
AcDbEntity
8
0
100
AcDbCircle
10
208.25695680018796
20
-165.20325802812974
30
0
40
0.99999999999999645
210
-0
220
0
230
1
100
AcDbArc
50
-90
51
0
0
ARC
5
455
100
AcDbEntity
8
0
100
AcDbCircle
10
198.25695680018796
20
-165.20325802812974
30
0
40
0.99999999999999645
210
0
220
-0
230
1
100
AcDbArc
50
180
51
270
0
LINE
5
456
100
AcDbEntity
8
0
100
AcDbLine
10
209.25695680018799
20
-136.20325802812977
30
0
11
209.25695680018799
21
-138.70325802812977
31
0
0
LINE
5
457
100
AcDbEntity
8
0
100
AcDbLine
10
209.25695680018799
20
-162.70325802812977
30
0
11
209.25695680018799
21
-165.20325802812974
31
0
0
LINE
5
458
100
AcDbEntity
8
0
100
AcDbLine
10
195.75695680018799
20
-138.70325802812977
30
0
11
195.75695680018799
21
-149.95325802812977
31
0
0
LINE
5
459
100
AcDbEntity
8
0
100
AcDbLine
10
204.00695680018799
20
-135.2032580281298
30
0
11
208.25695680018796
21
-135.2032580281298
31
0
0
LINE
5
460
100
AcDbEntity
8
0
100
AcDbLine
10
210.75695680018799
20
-138.70325802812977
30
0
11
209.25695680018799
21
-138.70325802812977
31
0
0
ARC
5
461
100
AcDbEntity
8
0
100
AcDbCircle
10
208.25695680018796
20
-136.20325802812977
30
0
40
0.99999999999999645
210
0
220
0
230
1
100
AcDbArc
50
0
51
90
0
LINE
5
462
100
AcDbEntity
8
0
100
AcDbLine
10
197.25695680018799
20
-138.70325802812977
30
0
11
197.25695680018799
21
-136.20325802812977
31
0
0
LINE
5
463
100
AcDbEntity
8
0
100
AcDbLine
10
197.25695680018799
20
-138.70325802812977
30
0
11
195.75695680018799
21
-138.70325802812977
31
0
0
LINE
5
464
100
AcDbEntity
8
0
100
AcDbLine
10
218.22067108590227
20
-165.20325802812974
30
0
11
218.22067108590227
21
-162.70325802812977
31
0
0
LWPOLYLINE
5
465
100
AcDbEntity
8
0
100
AcDbPolyline
90
4
70
1
43
0.0
10
231.72067108590227
20
-151.4532580281298
10
231.72067108590227
20
-149.95325802812977
10
232.4706710859023
20
-149.95325802812977
10
232.4706710859023
20
-151.4532580281298
0
LINE
5
466
100
AcDbEntity
8
0
100
AcDbLine
10
216.72067108590227
20
-151.45325802812977
30
0
11
216.72067108590227
21
-162.70325802812977
31
0
0
LWPOLYLINE
5
467
100
AcDbEntity
8
0
100
AcDbPolyline
90
4
70
1
43
0.0
10
223.47067108590224
20
-135.2032580281298
10
223.47067108590224
20
-134.45325802812977
10
224.9706710859023
20
-134.45325802812977
10
224.97067108590227
20
-135.2032580281298
0
LINE
5
468
100
AcDbEntity
8
0
100
AcDbLine
10
231.72067108590227
20
-162.70325802812977
30
0
11
231.72067108590227
21
-151.4532580281298
31
0
0
ARC
5
469
100
AcDbEntity
8
0
100
AcDbCircle
10
219.22067108590227
20
-136.20325802812977
30
0
40
0.99999999999999645
210
0
220
-0
230
1
100
AcDbArc
50
90
51
180
0
LINE
5
470
100
AcDbEntity
8
0
100
AcDbLine
10
223.47067108590232
20
-166.20325802812971
30
0
11
219.22067108590227
21
-166.20325802812971
31
0
0
LWPOLYLINE
5
471
100
AcDbEntity
8
0
100
AcDbPolyline
90
4
70
1
43
0.0
10
224.9706710859023
20
-166.20325802812971
10
224.9706710859023
20
-166.95325802812974
10
223.47067108590232
20
-166.95325802812974
10
223.47067108590232
20
-166.20325802812971
0
LINE
5
472
100
AcDbEntity
8
0
100
AcDbLine
10
231.72067108590227
20
-149.95325802812977
30
0
11
231.72067108590227
21
-138.70325802812977
31
0
0
LINE
5
473
100
AcDbEntity
8
0
100
AcDbLine
10
219.22067108590227
20
-135.2032580281298
30
0
11
223.47067108590224
21
-135.2032580281298
31
0
0
LINE
5
474
100
AcDbEntity
8
0
100
AcDbLine
10
230.22067108590227
20
-162.70325802812977
30
0
11
231.72067108590227
21
-162.70325802812977
31
0
0
LINE
5
475
100
AcDbEntity
8
0
100
AcDbLine
10
229.22067108590227
20
-166.20325802812971
30
0
11
224.9706710859023
21
-166.20325802812971
31
0
0
LINE
5
476
100
AcDbEntity
8
0
100
AcDbLine
10
216.72067108590227
20
-162.70325802812977
30
0
11
218.22067108590227
21
-162.70325802812977
31
0
0
LINE
5
477
100
AcDbEntity
8
0
100
AcDbLine
10
216.72067108590227
20
-138.70325802812977
30
0
11
216.72067108590227
21
-149.95325802812977
31
0
0
LWPOLYLINE
5
478
100
AcDbEntity
8
0
100
AcDbPolyline
90
4
70
1
43
0.0
10
215.97067108590227
20
-151.45325802812977
10
216.72067108590227
20
-151.45325802812977
10
216.72067108590227
20
-149.95325802812977
10
215.97067108590227
20
-149.95325802812977
0
ARC
5
479
100
AcDbEntity
8
0
100
AcDbCircle
10
229.22067108590227
20
-165.20325802812974
30
0
40
0.99999999999999645
210
-0
220
0
230
1
100
AcDbArc
50
-90
51
0
0
ARC
5
480
100
AcDbEntity
8
0
100
AcDbCircle
10
219.22067108590227
20
-165.20325802812974
30
0
40
0.99999999999999645
210
0
220
-0
230
1
100
AcDbArc
50
180
51
270
0
LINE
5
481
100
AcDbEntity
8
0
100
AcDbLine
10
230.22067108590227
20
-136.20325802812977
30
0
11
230.22067108590227
21
-138.70325802812977
31
0
0
LINE
5
482
100
AcDbEntity
8
0
100
AcDbLine
10
230.22067108590227
20
-162.70325802812977
30
0
11
230.22067108590227
21
-165.20325802812974
31
0
0
LINE
5
483
100
AcDbEntity
8
0
100
AcDbLine
10
216.72067108590227
20
-138.70325802812977
30
0
11
216.72067108590227
21
-149.95325802812977
31
0
0
LINE
5
484
100
AcDbEntity
8
0
100
AcDbLine
10
224.9706710859023
20
-135.2032580281298
30
0
11
229.22067108590227
21
-135.2032580281298
31
0
0
LINE
5
485
100
AcDbEntity
8
0
100
AcDbLine
10
231.72067108590227
20
-138.70325802812977
30
0
11
230.22067108590227
21
-138.70325802812977
31
0
0
ARC
5
486
100
AcDbEntity
8
0
100
AcDbCircle
10
229.22067108590227
20
-136.20325802812977
30
0
40
0.99999999999999645
210
0
220
0
230
1
100
AcDbArc
50
0
51
90
0
LINE
5
487
100
AcDbEntity
8
0
100
AcDbLine
10
218.22067108590227
20
-138.70325802812977
30
0
11
218.22067108590227
21
-136.20325802812977
31
0
0
LINE
5
488
100
AcDbEntity
8
0
100
AcDbLine
10
218.22067108590227
20
-138.70325802812977
30
0
11
216.72067108590227
21
-138.70325802812977
31
0
0
LINE
5
489
100
AcDbEntity
8
0
100
AcDbLine
10
239.18438537161654
20
-165.20325802812974
30
0
11
239.18438537161654
21
-162.70325802812977
31
0
0
LWPOLYLINE
5
490
100
AcDbEntity
8
0
100
AcDbPolyline
90
4
70
1
43
0.0
10
252.68438537161657
20
-151.4532580281298
10
252.68438537161657
20
-149.95325802812977
10
253.43438537161657
20
-149.95325802812977
10
253.43438537161657
20
-151.4532580281298
0
LINE
5
491
100
AcDbEntity
8
0
100
AcDbLine
10
237.68438537161657
20
-151.45325802812977
30
0
11
237.68438537161657
21
-162.70325802812977
31
0
0
LWPOLYLINE
5
492
100
AcDbEntity
8
0
100
AcDbPolyline
90
4
70
1
43
0.0
10
244.43438537161654
20
-135.2032580281298
10
244.43438537161654
20
-134.45325802812977
10
245.93438537161657
20
-134.45325802812977
10
245.93438537161657
20
-135.2032580281298
0
LINE
5
493
100
AcDbEntity
8
0
100
AcDbLine
10
252.68438537161657
20
-162.70325802812977
30
0
11
252.68438537161657
21
-151.4532580281298
31
0
0
ARC
5
494
100
AcDbEntity
8
0
100
AcDbCircle
10
240.18438537161657
20
-136.20325802812977
30
0
40
0.99999999999999645
210
0
220
-0
230
1
100
AcDbArc
50
90
51
180
0
LINE
5
495
100
AcDbEntity
8
0
100
AcDbLine
10
244.43438537161657
20
-166.20325802812971
30
0
11
240.18438537161657
21
-166.20325802812971
31
0
0
LWPOLYLINE
5
496
100
AcDbEntity
8
0
100
AcDbPolyline
90
4
70
1
43
0.0
10
245.93438537161657
20
-166.20325802812971
10
245.93438537161657
20
-166.95325802812974
10
244.43438537161657
20
-166.95325802812974
10
244.43438537161657
20
-166.20325802812971
0
LINE
5
497
100
AcDbEntity
8
0
100
AcDbLine
10
252.68438537161657
20
-149.95325802812977
30
0
11
252.68438537161657
21
-138.70325802812977
31
0
0
LINE
5
498
100
AcDbEntity
8
0
100
AcDbLine
10
240.18438537161657
20
-135.2032580281298
30
0
11
244.43438537161654
21
-135.2032580281298
31
0
0
LINE
5
499
100
AcDbEntity
8
0
100
AcDbLine
10
251.18438537161654
20
-162.70325802812977
30
0
11
252.68438537161657
21
-162.70325802812977
31
0
0
LINE
5
500
100
AcDbEntity
8
0
100
AcDbLine
10
250.18438537161657
20
-166.20325802812971
30
0
11
245.93438537161657
21
-166.20325802812971
31
0
0
LINE
5
501
100
AcDbEntity
8
0
100
AcDbLine
10
237.68438537161657
20
-162.70325802812977
30
0
11
239.18438537161654
21
-162.70325802812977
31
0
0
LINE
5
502
100
AcDbEntity
8
0
100
AcDbLine
10
237.68438537161657
20
-138.70325802812977
30
0
11
237.68438537161657
21
-149.95325802812977
31
0
0
LWPOLYLINE
5
503
100
AcDbEntity
8
0
100
AcDbPolyline
90
4
70
1
43
0.0
10
236.93438537161654
20
-151.45325802812977
10
237.68438537161657
20
-151.45325802812977
10
237.68438537161657
20
-149.95325802812977
10
236.93438537161654
20
-149.95325802812977
0
ARC
5
504
100
AcDbEntity
8
0
100
AcDbCircle
10
250.18438537161657
20
-165.20325802812974
30
0
40
0.99999999999999645
210
-0
220
0
230
1
100
AcDbArc
50
-90
51
0
0
ARC
5
505
100
AcDbEntity
8
0
100
AcDbCircle
10
240.18438537161657
20
-165.20325802812974
30
0
40
0.99999999999999645
210
0
220
-0
230
1
100
AcDbArc
50
180
51
270
0
LINE
5
506
100
AcDbEntity
8
0
100
AcDbLine
10
251.18438537161654
20
-136.20325802812977
30
0
11
251.18438537161654
21
-138.70325802812977
31
0
0
LINE
5
507
100
AcDbEntity
8
0
100
AcDbLine
10
251.18438537161654
20
-162.70325802812977
30
0
11
251.18438537161654
21
-165.20325802812974
31
0
0
LINE
5
508
100
AcDbEntity
8
0
100
AcDbLine
10
237.68438537161657
20
-138.70325802812977
30
0
11
237.68438537161657
21
-149.95325802812977
31
0
0
LINE
5
509
100
AcDbEntity
8
0
100
AcDbLine
10
245.93438537161657
20
-135.2032580281298
30
0
11
250.18438537161657
21
-135.2032580281298
31
0
0
LINE
5
510
100
AcDbEntity
8
0
100
AcDbLine
10
252.68438537161657
20
-138.70325802812977
30
0
11
251.18438537161654
21
-138.70325802812977
31
0
0
ARC
5
511
100
AcDbEntity
8
0
100
AcDbCircle
10
250.18438537161657
20
-136.20325802812977
30
0
40
0.99999999999999645
210
0
220
0
230
1
100
AcDbArc
50
0
51
90
0
LINE
5
512
100
AcDbEntity
8
0
100
AcDbLine
10
239.18438537161654
20
-138.70325802812977
30
0
11
239.18438537161654
21
-136.20325802812977
31
0
0
LINE
5
513
100
AcDbEntity
8
0
100
AcDbLine
10
239.18438537161654
20
-138.70325802812977
30
0
11
237.68438537161657
21
-138.70325802812977
31
0
0
LINE
5
514
100
AcDbEntity
8
0
100
AcDbLine
10
260.14809965733087
20
-165.20325802812974
30
0
11
260.14809965733087
21
-162.70325802812977
31
0
0
LWPOLYLINE
5
515
100
AcDbEntity
8
0
100
AcDbPolyline
90
4
70
1
43
0.0
10
273.64809965733087
20
-151.4532580281298
10
273.64809965733087
20
-149.95325802812977
10
274.39809965733087
20
-149.95325802812977
10
274.39809965733087
20
-151.4532580281298
0
LINE
5
516
100
AcDbEntity
8
0
100
AcDbLine
10
258.64809965733087
20
-151.45325802812977
30
0
11
258.64809965733087
21
-162.70325802812977
31
0
0
LWPOLYLINE
5
517
100
AcDbEntity
8
0
100
AcDbPolyline
90
4
70
1
43
0.0
10
265.39809965733082
20
-135.2032580281298
10
265.39809965733082
20
-134.45325802812977
10
266.89809965733087
20
-134.45325802812977
10
266.89809965733087
20
-135.2032580281298
0
LINE
5
518
100
AcDbEntity
8
0
100
AcDbLine
10
273.64809965733087
20
-162.70325802812977
30
0
11
273.64809965733087
21
-151.4532580281298
31
0
0
ARC
5
519
100
AcDbEntity
8
0
100
AcDbCircle
10
261.14809965733087
20
-136.20325802812977
30
0
40
0.99999999999999645
210
0
220
-0
230
1
100
AcDbArc
50
90
51
180
0
LINE
5
520
100
AcDbEntity
8
0
100
AcDbLine
10
265.39809965733087
20
-166.20325802812971
30
0
11
261.14809965733087
21
-166.20325802812971
31
0
0
LWPOLYLINE
5
521
100
AcDbEntity
8
0
100
AcDbPolyline
90
4
70
1
43
0.0
10
266.89809965733087
20
-166.20325802812971
10
266.89809965733087
20
-166.95325802812974
10
265.39809965733087
20
-166.95325802812974
10
265.39809965733087
20
-166.20325802812971
0
LINE
5
522
100
AcDbEntity
8
0
100
AcDbLine
10
273.64809965733087
20
-149.95325802812977
30
0
11
273.64809965733087
21
-138.70325802812977
31
0
0
LINE
5
523
100
AcDbEntity
8
0
100
AcDbLine
10
261.14809965733087
20
-135.2032580281298
30
0
11
265.39809965733082
21
-135.2032580281298
31
0
0
LINE
5
524
100
AcDbEntity
8
0
100
AcDbLine
10
272.14809965733087
20
-162.70325802812977
30
0
11
273.64809965733087
21
-162.70325802812977
31
0
0
LINE
5
525
100
AcDbEntity
8
0
100
AcDbLine
10
271.14809965733087
20
-166.20325802812971
30
0
11
266.89809965733087
21
-166.20325802812971
31
0
0
LINE
5
526
100
AcDbEntity
8
0
100
AcDbLine
10
258.64809965733087
20
-162.70325802812977
30
0
11
260.14809965733087
21
-162.70325802812977
31
0
0
LINE
5
527
100
AcDbEntity
8
0
100
AcDbLine
10
258.64809965733087
20
-138.70325802812977
30
0
11
258.64809965733087
21
-149.95325802812977
31
0
0
LWPOLYLINE
5
528
100
AcDbEntity
8
0
100
AcDbPolyline
90
4
70
1
43
0.0
10
257.89809965733082
20
-151.45325802812977
10
258.64809965733087
20
-151.45325802812977
10
258.64809965733087
20
-149.95325802812977
10
257.89809965733082
20
-149.95325802812977
0
ARC
5
529
100
AcDbEntity
8
0
100
AcDbCircle
10
271.14809965733087
20
-165.20325802812974
30
0
40
0.99999999999999645
210
-0
220
0
230
1
100
AcDbArc
50
-90
51
0
0
ARC
5
530
100
AcDbEntity
8
0
100
AcDbCircle
10
261.14809965733087
20
-165.20325802812974
30
0
40
0.99999999999999645
210
0
220
-0
230
1
100
AcDbArc
50
180
51
270
0
LINE
5
531
100
AcDbEntity
8
0
100
AcDbLine
10
272.14809965733087
20
-136.20325802812977
30
0
11
272.14809965733087
21
-138.70325802812977
31
0
0
LINE
5
532
100
AcDbEntity
8
0
100
AcDbLine
10
272.14809965733087
20
-162.70325802812977
30
0
11
272.14809965733087
21
-165.20325802812974
31
0
0
LINE
5
533
100
AcDbEntity
8
0
100
AcDbLine
10
258.64809965733087
20
-138.70325802812977
30
0
11
258.64809965733087
21
-149.95325802812977
31
0
0
LINE
5
534
100
AcDbEntity
8
0
100
AcDbLine
10
266.89809965733087
20
-135.2032580281298
30
0
11
271.14809965733087
21
-135.2032580281298
31
0
0
LINE
5
535
100
AcDbEntity
8
0
100
AcDbLine
10
273.64809965733087
20
-138.70325802812977
30
0
11
272.14809965733087
21
-138.70325802812977
31
0
0
ARC
5
536
100
AcDbEntity
8
0
100
AcDbCircle
10
271.14809965733087
20
-136.20325802812977
30
0
40
0.99999999999999645
210
0
220
0
230
1
100
AcDbArc
50
0
51
90
0
LINE
5
537
100
AcDbEntity
8
0
100
AcDbLine
10
260.14809965733087
20
-138.70325802812977
30
0
11
260.14809965733087
21
-136.20325802812977
31
0
0
LINE
5
538
100
AcDbEntity
8
0
100
AcDbLine
10
260.14809965733087
20
-138.70325802812977
30
0
11
258.64809965733087
21
-138.70325802812977
31
0
0
LINE
5
539
100
AcDbEntity
8
0
100
AcDbLine
10
281.11181394304515
20
-165.20325802812974
30
0
11
281.11181394304515
21
-162.70325802812977
31
0
0
LWPOLYLINE
5
540
100
AcDbEntity
8
0
100
AcDbPolyline
90
4
70
1
43
0.0
10
294.61181394304515
20
-151.4532580281298
10
294.61181394304515
20
-149.95325802812977
10
295.36181394304515
20
-149.95325802812977
10
295.36181394304515
20
-151.4532580281298
0
LINE
5
541
100
AcDbEntity
8
0
100
AcDbLine
10
279.61181394304515
20
-151.45325802812977
30
0
11
279.61181394304515
21
-162.70325802812977
31
0
0
LWPOLYLINE
5
542
100
AcDbEntity
8
0
100
AcDbPolyline
90
4
70
1
43
0.0
10
286.36181394304515
20
-135.2032580281298
10
286.36181394304515
20
-134.45325802812977
10
287.86181394304515
20
-134.45325802812977
10
287.86181394304515
20
-135.2032580281298
0
LINE
5
543
100
AcDbEntity
8
0
100
AcDbLine
10
294.61181394304515
20
-162.70325802812977
30
0
11
294.61181394304515
21
-151.4532580281298
31
0
0
ARC
5
544
100
AcDbEntity
8
0
100
AcDbCircle
10
282.11181394304515
20
-136.20325802812977
30
0
40
0.99999999999999645
210
0
220
-0
230
1
100
AcDbArc
50
90
51
180
0
LINE
5
545
100
AcDbEntity
8
0
100
AcDbLine
10
286.36181394304515
20
-166.20325802812971
30
0
11
282.11181394304515
21
-166.20325802812971
31
0
0
LWPOLYLINE
5
546
100
AcDbEntity
8
0
100
AcDbPolyline
90
4
70
1
43
0.0
10
287.86181394304515
20
-166.20325802812971
10
287.86181394304515
20
-166.95325802812974
10
286.36181394304515
20
-166.95325802812974
10
286.36181394304515
20
-166.20325802812971
0
LINE
5
547
100
AcDbEntity
8
0
100
AcDbLine
10
294.61181394304515
20
-149.95325802812977
30
0
11
294.61181394304515
21
-138.70325802812977
31
0
0
LINE
5
548
100
AcDbEntity
8
0
100
AcDbLine
10
282.11181394304515
20
-135.2032580281298
30
0
11
286.36181394304515
21
-135.2032580281298
31
0
0
LINE
5
549
100
AcDbEntity
8
0
100
AcDbLine
10
293.11181394304515
20
-162.70325802812977
30
0
11
294.61181394304515
21
-162.70325802812977
31
0
0
LINE
5
550
100
AcDbEntity
8
0
100
AcDbLine
10
292.11181394304515
20
-166.20325802812971
30
0
11
287.86181394304515
21
-166.20325802812971
31
0
0
LINE
5
551
100
AcDbEntity
8
0
100
AcDbLine
10
279.61181394304515
20
-162.70325802812977
30
0
11
281.11181394304515
21
-162.70325802812977
31
0
0
LINE
5
552
100
AcDbEntity
8
0
100
AcDbLine
10
279.61181394304515
20
-138.70325802812977
30
0
11
279.61181394304515
21
-149.95325802812977
31
0
0
LWPOLYLINE
5
553
100
AcDbEntity
8
0
100
AcDbPolyline
90
4
70
1
43
0.0
10
278.86181394304515
20
-151.45325802812977
10
279.61181394304515
20
-151.45325802812977
10
279.61181394304515
20
-149.95325802812977
10
278.86181394304515
20
-149.95325802812977
0
ARC
5
554
100
AcDbEntity
8
0
100
AcDbCircle
10
292.11181394304515
20
-165.20325802812974
30
0
40
0.99999999999999645
210
-0
220
0
230
1
100
AcDbArc
50
-90
51
0
0
ARC
5
555
100
AcDbEntity
8
0
100
AcDbCircle
10
282.11181394304515
20
-165.20325802812974
30
0
40
0.99999999999999645
210
0
220
-0
230
1
100
AcDbArc
50
180
51
270
0
LINE
5
556
100
AcDbEntity
8
0
100
AcDbLine
10
293.11181394304515
20
-136.20325802812977
30
0
11
293.11181394304515
21
-138.70325802812977
31
0
0
LINE
5
557
100
AcDbEntity
8
0
100
AcDbLine
10
293.11181394304515
20
-162.70325802812977
30
0
11
293.11181394304515
21
-165.20325802812974
31
0
0
LINE
5
558
100
AcDbEntity
8
0
100
AcDbLine
10
279.61181394304515
20
-138.70325802812977
30
0
11
279.61181394304515
21
-149.95325802812977
31
0
0
LINE
5
559
100
AcDbEntity
8
0
100
AcDbLine
10
287.86181394304515
20
-135.2032580281298
30
0
11
292.11181394304515
21
-135.2032580281298
31
0
0
LINE
5
560
100
AcDbEntity
8
0
100
AcDbLine
10
294.61181394304515
20
-138.70325802812977
30
0
11
293.11181394304515
21
-138.70325802812977
31
0
0
ARC
5
561
100
AcDbEntity
8
0
100
AcDbCircle
10
292.11181394304515
20
-136.20325802812977
30
0
40
0.99999999999999645
210
0
220
0
230
1
100
AcDbArc
50
0
51
90
0
LINE
5
562
100
AcDbEntity
8
0
100
AcDbLine
10
281.11181394304515
20
-138.70325802812977
30
0
11
281.11181394304515
21
-136.20325802812977
31
0
0
LINE
5
563
100
AcDbEntity
8
0
100
AcDbLine
10
281.11181394304515
20
-138.70325802812977
30
0
11
279.61181394304515
21
-138.70325802812977
31
0
0
ENDSEC
0
SECTION
2
OBJECTS
0
DICTIONARY
5
C
100
AcDbDictionary
3
ACAD_GROUP
350
D
3
ACAD_MLINESTYLE
350
17
0
DICTIONARY
5
D
100
AcDbDictionary
0
DICTIONARY
5
1A
330
C
100
AcDbDictionary
0
DICTIONARY
5
17
100
AcDbDictionary
0
ENDSEC
0
EOF
