<?xml version="1.0" encoding="UTF-8" standalone="no"?>
<svg
   viewBox="0 0 793.70077 1122.5197"
   width="210mm"
   height="297mm"
   version="1.1"
   id="svg1794"
   sodipodi:docname="SIDE.svg"
   inkscape:version="1.2 (dc2aedaf03, 2022-05-15)"
   xmlns:inkscape="http://www.inkscape.org/namespaces/inkscape"
   xmlns:sodipodi="http://sodipodi.sourceforge.net/DTD/sodipodi-0.dtd"
   xmlns="http://www.w3.org/2000/svg"
   xmlns:svg="http://www.w3.org/2000/svg">
  <sodipodi:namedview
     id="namedview1796"
     pagecolor="#ffffff"
     bordercolor="#000000"
     borderopacity="0.25"
     inkscape:showpageshadow="2"
     inkscape:pageopacity="0.0"
     inkscape:pagecheckerboard="0"
     inkscape:deskcolor="#d1d1d1"
     showgrid="false"
     inkscape:zoom="1.044421"
     inkscape:cx="-131.17316"
     inkscape:cy="264.73999"
     inkscape:window-width="1409"
     inkscape:window-height="1032"
     inkscape:window-x="255"
     inkscape:window-y="364"
     inkscape:window-maximized="0"
     inkscape:current-layer="g1792"
     inkscape:document-units="mm" />
  <desc
     id="desc848">SIDE.dxf - scale = 1.000000, origin = (0.000000, 0.000000), method = manual</desc>
  <defs
     id="defs862">
    <marker
       id="DistanceX"
       orient="auto"
       refX="0"
       refY="0"
       style="overflow:visible">
      <path
         d="M 3,-3 -3,3 M 0,-5 V 5"
         style="stroke:#000000;stroke-width:0.5"
         id="path850" />
    </marker>
    <pattern
       id="Hatch"
       patternUnits="userSpaceOnUse"
       width="8"
       height="8"
       x="0"
       y="0">
      <path
         d="M8 4 l-4,4"
         stroke="#000000"
         stroke-width="0.25"
         linecap="square"
         id="path853" />
      <path
         d="M6 2 l-4,4"
         stroke="#000000"
         stroke-width="0.25"
         linecap="square"
         id="path855" />
      <path
         d="M4 0 l-4,4"
         stroke="#000000"
         stroke-width="0.25"
         linecap="square"
         id="path857" />
    </pattern>
    <symbol
       id="*MODEL_SPACE" />
    <symbol
       id="*PAPER_SPACE" />
  </defs>
  <g
     inkscape:groupmode="layer"
     inkscape:label="0"
     id="g1792">
    <path
       id="path932"
       style="fill:none;stroke:#ff0000;stroke-opacity:1"
       d="m 80.840642,522.43197 h -16.063 m 37.794998,0 H 86.509642 M 112.02148,418.49219 v 42.51953 z m 1.6e-4,90.70978 v -42.52 m -56.692998,0 v 42.52 m 0,-90.71 v 42.52 m 9.449,-55.75 h 16.063 m 5.669,0 h 16.062998 m 10e-5,117.1664 a 3.779528,3.779528 0 0 0 3.77953,-3.77952 m -45.354331,0 a 3.779528,3.779528 0 0 0 3.779527,3.77952 M 106.35227,409.04255 a 3.779528,3.779528 0 0 0 -3.77953,-3.77953 m -37.795274,0 a 3.779528,3.779528 0 0 0 -3.779527,3.77953 m 51.023701,9.44942 h -5.669 m -45.354998,0 v -9.45 m -5.669,100.16 h 5.669 m -5.669,-90.71 v 42.52 m 51.023998,-51.97 v 9.45 m 0,90.71 h 5.669 m -51.023998,-90.71 h -5.669 m 51.023998,90.71 v 9.45 m -45.354998,0 v -9.45" />
    <path
       id="path904"
       style="fill:none;stroke:#ff0000;stroke-opacity:1"
       d="m 141.35624,141.58375 a 9.448819,9.448819 0 0 0 -18.89763,0 9.448819,9.448819 0 0 0 18.89763,0 z m 52.91339,0 a 17.007875,17.007875 0 0 0 -34.01575,0 17.007875,17.007875 0 0 0 34.01575,0 z M 50.647582,130.24517 h 11.338583 v 22.67716 H 50.647582 Z M 76.159393,79.221545 H 60.096401 c -2.087375,10e-7 -3.779527,1.692153 -3.779527,3.779528 v 9.448819 H 26.411423 v 7.559058 38.74015 m 0,5.6693 v 38.74015 h 29.905451 v 9.44882 c -10e-7,2.08738 1.692151,3.77953 3.779527,3.77953 h 16.062992 m 5.669292,0 h 16.062992 c 2.087375,0 3.779523,-1.69216 3.779523,-3.77953 v -9.44882 h 45.35434 v 9.44882 c 0,2.08737 1.69215,3.77953 3.77952,3.77953 h 16.063 m 5.66929,0 h 16.06299 c 2.08738,0 3.77953,-1.69215 3.77953,-3.77953 v -9.44882 H 215.3878 V 144.4184 m 0,-5.6693 V 92.449892 h -23.00793 v -9.448819 c 0,-2.087376 -1.69215,-3.779529 -3.77953,-3.779528 h -16.06299 m -5.66929,0 h -16.063 c -2.08737,4e-6 -3.77952,1.692155 -3.77952,3.779528 v 9.448819 H 101.6712 v -9.448819 c 0,-2.087374 -1.692149,-3.779525 -3.779523,-3.779528 H 81.828685" />
  </g>
</svg>
